<svg width="330" height="37" viewBox="0 0 330 37" fill="none" xmlns="http://www.w3.org/2000/svg">
<g clip-path="url(#clip0_360_47)">
<mask id="path-1-outside-1_360_47" maskUnits="userSpaceOnUse" x="0" y="0" width="330" height="37" fill="black">
<rect fill="white" width="330" height="37"/>
<path d="M12.288 27L4.864 4.6H9.184L15.808 24.856H13.664L20.544 4.6H24.384L31.072 24.856H28.992L35.776 4.6H39.744L32.32 27H27.904L21.792 8.728H22.944L16.736 27H12.288ZM49.4998 27.224C47.6011 27.224 45.9371 26.8507 44.5078 26.104C43.0998 25.336 42.0011 24.2907 41.2118 22.968C40.4438 21.6453 40.0598 20.1413 40.0598 18.456C40.0598 16.7493 40.4331 15.2453 41.1798 13.944C41.9478 12.6213 42.9931 11.5867 44.3158 10.84C45.6598 10.0933 47.1851 9.72 48.8918 9.72C50.5558 9.72 52.0384 10.0827 53.3398 10.808C54.6411 11.5333 55.6651 12.5573 56.4118 13.88C57.1584 15.2027 57.5318 16.76 57.5318 18.552C57.5318 18.7227 57.5211 18.9147 57.4998 19.128C57.4998 19.3413 57.4891 19.544 57.4678 19.736H43.2278V17.08H55.3558L53.7878 17.912C53.8091 16.9307 53.6064 16.0667 53.1798 15.32C52.7531 14.5733 52.1664 13.9867 51.4198 13.56C50.6944 13.1333 49.8518 12.92 48.8918 12.92C47.9104 12.92 47.0464 13.1333 46.2998 13.56C45.5744 13.9867 44.9984 14.584 44.5718 15.352C44.1664 16.0987 43.9638 16.984 43.9638 18.008V18.648C43.9638 19.672 44.1984 20.5787 44.6678 21.368C45.1371 22.1573 45.7984 22.7653 46.6518 23.192C47.5051 23.6187 48.4864 23.832 49.5958 23.832C50.5558 23.832 51.4198 23.6827 52.1878 23.384C52.9558 23.0853 53.6384 22.616 54.2358 21.976L56.3798 24.44C55.6118 25.336 54.6411 26.0293 53.4678 26.52C52.3158 26.9893 50.9931 27.224 49.4998 27.224ZM61.374 27V3.256H65.374V27H61.374ZM78.464 27.224C76.672 27.224 75.072 26.8507 73.664 26.104C72.2773 25.336 71.1893 24.2907 70.4 22.968C69.6107 21.6453 69.216 20.1413 69.216 18.456C69.216 16.7493 69.6107 15.2453 70.4 13.944C71.1893 12.6213 72.2773 11.5867 73.664 10.84C75.072 10.0933 76.672 9.72 78.464 9.72C80.128 9.72 81.5893 10.0613 82.848 10.744C84.128 11.4053 85.0987 12.3867 85.76 13.688L82.688 15.48C82.176 14.6693 81.5467 14.072 80.8 13.688C80.0747 13.304 79.2853 13.112 78.432 13.112C77.4507 13.112 76.5653 13.3253 75.776 13.752C74.9867 14.1787 74.368 14.7973 73.92 15.608C73.472 16.3973 73.248 17.3467 73.248 18.456C73.248 19.5653 73.472 20.5253 73.92 21.336C74.368 22.1253 74.9867 22.7333 75.776 23.16C76.5653 23.5867 77.4507 23.8 78.432 23.8C79.2853 23.8 80.0747 23.608 80.8 23.224C81.5467 22.84 82.176 22.2427 82.688 21.432L85.76 23.224C85.0987 24.504 84.128 25.496 82.848 26.2C81.5893 26.8827 80.128 27.224 78.464 27.224ZM96.6478 27.224C94.8984 27.224 93.3411 26.8507 91.9758 26.104C90.6104 25.336 89.5331 24.2907 88.7438 22.968C87.9544 21.6453 87.5598 20.1413 87.5598 18.456C87.5598 16.7493 87.9544 15.2453 88.7438 13.944C89.5331 12.6213 90.6104 11.5867 91.9758 10.84C93.3411 10.0933 94.8984 9.72 96.6478 9.72C98.4184 9.72 99.9864 10.0933 101.352 10.84C102.738 11.5867 103.816 12.6107 104.584 13.912C105.373 15.2133 105.768 16.728 105.768 18.456C105.768 20.1413 105.373 21.6453 104.584 22.968C103.816 24.2907 102.738 25.336 101.352 26.104C99.9864 26.8507 98.4184 27.224 96.6478 27.224ZM96.6478 23.8C97.6291 23.8 98.5038 23.5867 99.2718 23.16C100.04 22.7333 100.637 22.1147 101.064 21.304C101.512 20.4933 101.736 19.544 101.736 18.456C101.736 17.3467 101.512 16.3973 101.064 15.608C100.637 14.7973 100.04 14.1787 99.2718 13.752C98.5038 13.3253 97.6398 13.112 96.6798 13.112C95.6984 13.112 94.8238 13.3253 94.0558 13.752C93.3091 14.1787 92.7118 14.7973 92.2638 15.608C91.8158 16.3973 91.5918 17.3467 91.5918 18.456C91.5918 19.544 91.8158 20.4933 92.2638 21.304C92.7118 22.1147 93.3091 22.7333 94.0558 23.16C94.8238 23.5867 95.6878 23.8 96.6478 23.8ZM131.161 9.72C132.526 9.72 133.731 9.98667 134.777 10.52C135.843 11.0533 136.675 11.8747 137.273 12.984C137.87 14.072 138.169 15.48 138.169 17.208V27H134.169V17.72C134.169 16.2053 133.838 15.0747 133.177 14.328C132.515 13.5813 131.566 13.208 130.329 13.208C129.454 13.208 128.675 13.4 127.993 13.784C127.331 14.168 126.809 14.7333 126.425 15.48C126.062 16.2267 125.881 17.176 125.881 18.328V27H121.881V17.72C121.881 16.2053 121.55 15.0747 120.889 14.328C120.227 13.5813 119.278 13.208 118.041 13.208C117.166 13.208 116.387 13.4 115.705 13.784C115.043 14.168 114.521 14.7333 114.137 15.48C113.774 16.2267 113.593 17.176 113.593 18.328V27H109.593V9.912H113.401V14.456L112.729 13.112C113.305 12.0027 114.137 11.16 115.225 10.584C116.334 10.008 117.593 9.72 119.001 9.72C120.601 9.72 121.987 10.1147 123.161 10.904C124.355 11.6933 125.145 12.888 125.529 14.488L123.961 13.944C124.515 12.664 125.433 11.64 126.713 10.872C127.993 10.104 129.475 9.72 131.161 9.72ZM151.344 27.224C149.445 27.224 147.781 26.8507 146.352 26.104C144.944 25.336 143.845 24.2907 143.056 22.968C142.288 21.6453 141.904 20.1413 141.904 18.456C141.904 16.7493 142.277 15.2453 143.024 13.944C143.792 12.6213 144.837 11.5867 146.16 10.84C147.504 10.0933 149.029 9.72 150.736 9.72C152.4 9.72 153.882 10.0827 155.184 10.808C156.485 11.5333 157.509 12.5573 158.256 13.88C159.002 15.2027 159.376 16.76 159.376 18.552C159.376 18.7227 159.365 18.9147 159.344 19.128C159.344 19.3413 159.333 19.544 159.312 19.736H145.072V17.08H157.2L155.632 17.912C155.653 16.9307 155.45 16.0667 155.024 15.32C154.597 14.5733 154.01 13.9867 153.264 13.56C152.538 13.1333 151.696 12.92 150.736 12.92C149.754 12.92 148.89 13.1333 148.144 13.56C147.418 13.9867 146.842 14.584 146.416 15.352C146.01 16.0987 145.808 16.984 145.808 18.008V18.648C145.808 19.672 146.042 20.5787 146.512 21.368C146.981 22.1573 147.642 22.7653 148.496 23.192C149.349 23.6187 150.33 23.832 151.44 23.832C152.4 23.832 153.264 23.6827 154.032 23.384C154.8 23.0853 155.482 22.616 156.08 21.976L158.224 24.44C157.456 25.336 156.485 26.0293 155.312 26.52C154.16 26.9893 152.837 27.224 151.344 27.224ZM178.494 27.224C176.616 27.224 175.166 26.744 174.141 25.784C173.118 24.8027 172.606 23.3627 172.606 21.464V6.136H176.606V21.368C176.606 22.1787 176.808 22.808 177.214 23.256C177.64 23.704 178.227 23.928 178.974 23.928C179.87 23.928 180.616 23.6933 181.214 23.224L182.334 26.072C181.864 26.456 181.288 26.744 180.606 26.936C179.923 27.128 179.219 27.224 178.494 27.224ZM169.79 13.24V10.04H181.182V13.24H169.79ZM192.742 27.224C190.992 27.224 189.435 26.8507 188.07 26.104C186.704 25.336 185.627 24.2907 184.838 22.968C184.048 21.6453 183.654 20.1413 183.654 18.456C183.654 16.7493 184.048 15.2453 184.838 13.944C185.627 12.6213 186.704 11.5867 188.07 10.84C189.435 10.0933 190.992 9.72 192.742 9.72C194.512 9.72 196.08 10.0933 197.446 10.84C198.832 11.5867 199.91 12.6107 200.678 13.912C201.467 15.2133 201.862 16.728 201.862 18.456C201.862 20.1413 201.467 21.6453 200.678 22.968C199.91 24.2907 198.832 25.336 197.446 26.104C196.08 26.8507 194.512 27.224 192.742 27.224ZM192.742 23.8C193.723 23.8 194.598 23.5867 195.366 23.16C196.134 22.7333 196.731 22.1147 197.158 21.304C197.606 20.4933 197.83 19.544 197.83 18.456C197.83 17.3467 197.606 16.3973 197.158 15.608C196.731 14.7973 196.134 14.1787 195.366 13.752C194.598 13.3253 193.734 13.112 192.774 13.112C191.792 13.112 190.918 13.3253 190.15 13.752C189.403 14.1787 188.806 14.7973 188.358 15.608C187.91 16.3973 187.686 17.3467 187.686 18.456C187.686 19.544 187.91 20.4933 188.358 21.304C188.806 22.1147 189.403 22.7333 190.15 23.16C190.918 23.5867 191.782 23.8 192.742 23.8ZM219.458 27V8.12H212.034V4.6H231.042V8.12H223.618V27H219.458ZM240.606 27.224C239.155 27.224 237.875 26.9573 236.766 26.424C235.657 25.8693 234.793 25.0373 234.174 23.928C233.555 22.7973 233.246 21.3787 233.246 19.672V9.912H237.246V19.128C237.246 20.664 237.587 21.816 238.27 22.584C238.974 23.3307 239.966 23.704 241.246 23.704C242.185 23.704 242.995 23.512 243.678 23.128C244.382 22.744 244.926 22.168 245.31 21.4C245.715 20.632 245.918 19.6827 245.918 18.552V9.912H249.918V27H246.11V22.392L246.782 23.8C246.206 24.9093 245.363 25.7627 244.254 26.36C243.145 26.936 241.929 27.224 240.606 27.224ZM264.851 9.72C266.217 9.72 267.433 9.98667 268.499 10.52C269.587 11.0533 270.441 11.8747 271.059 12.984C271.678 14.072 271.987 15.48 271.987 17.208V27H267.987V17.72C267.987 16.2053 267.625 15.0747 266.899 14.328C266.195 13.5813 265.203 13.208 263.923 13.208C262.985 13.208 262.153 13.4 261.427 13.784C260.702 14.168 260.137 14.744 259.731 15.512C259.347 16.2587 259.155 17.208 259.155 18.36V27H255.155V9.912H258.963V14.52L258.291 13.112C258.889 12.024 259.753 11.192 260.883 10.616C262.035 10.0187 263.358 9.72 264.851 9.72ZM285.125 27.224C283.226 27.224 281.562 26.8507 280.133 26.104C278.725 25.336 277.626 24.2907 276.837 22.968C276.069 21.6453 275.685 20.1413 275.685 18.456C275.685 16.7493 276.058 15.2453 276.805 13.944C277.573 12.6213 278.618 11.5867 279.941 10.84C281.285 10.0933 282.81 9.72 284.517 9.72C286.181 9.72 287.663 10.0827 288.965 10.808C290.266 11.5333 291.29 12.5573 292.037 13.88C292.783 15.2027 293.157 16.76 293.157 18.552C293.157 18.7227 293.146 18.9147 293.125 19.128C293.125 19.3413 293.114 19.544 293.093 19.736H278.853V17.08H290.981L289.413 17.912C289.434 16.9307 289.231 16.0667 288.805 15.32C288.378 14.5733 287.791 13.9867 287.045 13.56C286.319 13.1333 285.477 12.92 284.517 12.92C283.535 12.92 282.671 13.1333 281.925 13.56C281.199 13.9867 280.623 14.584 280.197 15.352C279.791 16.0987 279.589 16.984 279.589 18.008V18.648C279.589 19.672 279.823 20.5787 280.293 21.368C280.762 22.1573 281.423 22.7653 282.277 23.192C283.13 23.6187 284.111 23.832 285.221 23.832C286.181 23.832 287.045 23.6827 287.813 23.384C288.581 23.0853 289.263 22.616 289.861 21.976L292.005 24.44C291.237 25.336 290.266 26.0293 289.093 26.52C287.941 26.9893 286.618 27.224 285.125 27.224ZM297.543 27V8.952C297.543 7.16 298.066 5.73067 299.111 4.664C300.178 3.576 301.692 3.032 303.655 3.032C304.359 3.032 305.02 3.10667 305.639 3.256C306.279 3.40533 306.812 3.64 307.239 3.96L306.151 6.968C305.852 6.73333 305.511 6.56267 305.127 6.456C304.743 6.328 304.348 6.264 303.943 6.264C303.111 6.264 302.482 6.49867 302.055 6.968C301.628 7.416 301.415 8.09867 301.415 9.016V10.936L301.543 12.728V27H297.543ZM294.727 13.24V10.04H306.119V13.24H294.727ZM310.532 33.432C309.7 33.432 308.868 33.2933 308.036 33.016C307.204 32.7387 306.511 32.3547 305.956 31.864L307.556 28.92C307.961 29.2827 308.42 29.5707 308.932 29.784C309.444 29.9973 309.967 30.104 310.5 30.104C311.225 30.104 311.812 29.9227 312.26 29.56C312.708 29.1973 313.124 28.5893 313.508 27.736L314.5 25.496L314.82 25.016L321.284 9.912H325.124L317.124 28.376C316.591 29.656 315.993 30.6693 315.332 31.416C314.692 32.1627 313.967 32.6853 313.156 32.984C312.367 33.2827 311.492 33.432 310.532 33.432ZM314.052 27.608L306.34 9.912H310.5L316.772 24.664L314.052 27.608Z"/>
</mask>
<path d="M12.288 27L4.864 4.6H9.184L15.808 24.856H13.664L20.544 4.6H24.384L31.072 24.856H28.992L35.776 4.6H39.744L32.32 27H27.904L21.792 8.728H22.944L16.736 27H12.288ZM49.4998 27.224C47.6011 27.224 45.9371 26.8507 44.5078 26.104C43.0998 25.336 42.0011 24.2907 41.2118 22.968C40.4438 21.6453 40.0598 20.1413 40.0598 18.456C40.0598 16.7493 40.4331 15.2453 41.1798 13.944C41.9478 12.6213 42.9931 11.5867 44.3158 10.84C45.6598 10.0933 47.1851 9.72 48.8918 9.72C50.5558 9.72 52.0384 10.0827 53.3398 10.808C54.6411 11.5333 55.6651 12.5573 56.4118 13.88C57.1584 15.2027 57.5318 16.76 57.5318 18.552C57.5318 18.7227 57.5211 18.9147 57.4998 19.128C57.4998 19.3413 57.4891 19.544 57.4678 19.736H43.2278V17.08H55.3558L53.7878 17.912C53.8091 16.9307 53.6064 16.0667 53.1798 15.32C52.7531 14.5733 52.1664 13.9867 51.4198 13.56C50.6944 13.1333 49.8518 12.92 48.8918 12.92C47.9104 12.92 47.0464 13.1333 46.2998 13.56C45.5744 13.9867 44.9984 14.584 44.5718 15.352C44.1664 16.0987 43.9638 16.984 43.9638 18.008V18.648C43.9638 19.672 44.1984 20.5787 44.6678 21.368C45.1371 22.1573 45.7984 22.7653 46.6518 23.192C47.5051 23.6187 48.4864 23.832 49.5958 23.832C50.5558 23.832 51.4198 23.6827 52.1878 23.384C52.9558 23.0853 53.6384 22.616 54.2358 21.976L56.3798 24.44C55.6118 25.336 54.6411 26.0293 53.4678 26.52C52.3158 26.9893 50.9931 27.224 49.4998 27.224ZM61.374 27V3.256H65.374V27H61.374ZM78.464 27.224C76.672 27.224 75.072 26.8507 73.664 26.104C72.2773 25.336 71.1893 24.2907 70.4 22.968C69.6107 21.6453 69.216 20.1413 69.216 18.456C69.216 16.7493 69.6107 15.2453 70.4 13.944C71.1893 12.6213 72.2773 11.5867 73.664 10.84C75.072 10.0933 76.672 9.72 78.464 9.72C80.128 9.72 81.5893 10.0613 82.848 10.744C84.128 11.4053 85.0987 12.3867 85.76 13.688L82.688 15.48C82.176 14.6693 81.5467 14.072 80.8 13.688C80.0747 13.304 79.2853 13.112 78.432 13.112C77.4507 13.112 76.5653 13.3253 75.776 13.752C74.9867 14.1787 74.368 14.7973 73.92 15.608C73.472 16.3973 73.248 17.3467 73.248 18.456C73.248 19.5653 73.472 20.5253 73.92 21.336C74.368 22.1253 74.9867 22.7333 75.776 23.16C76.5653 23.5867 77.4507 23.8 78.432 23.8C79.2853 23.8 80.0747 23.608 80.8 23.224C81.5467 22.84 82.176 22.2427 82.688 21.432L85.76 23.224C85.0987 24.504 84.128 25.496 82.848 26.2C81.5893 26.8827 80.128 27.224 78.464 27.224ZM96.6478 27.224C94.8984 27.224 93.3411 26.8507 91.9758 26.104C90.6104 25.336 89.5331 24.2907 88.7438 22.968C87.9544 21.6453 87.5598 20.1413 87.5598 18.456C87.5598 16.7493 87.9544 15.2453 88.7438 13.944C89.5331 12.6213 90.6104 11.5867 91.9758 10.84C93.3411 10.0933 94.8984 9.72 96.6478 9.72C98.4184 9.72 99.9864 10.0933 101.352 10.84C102.738 11.5867 103.816 12.6107 104.584 13.912C105.373 15.2133 105.768 16.728 105.768 18.456C105.768 20.1413 105.373 21.6453 104.584 22.968C103.816 24.2907 102.738 25.336 101.352 26.104C99.9864 26.8507 98.4184 27.224 96.6478 27.224ZM96.6478 23.8C97.6291 23.8 98.5038 23.5867 99.2718 23.16C100.04 22.7333 100.637 22.1147 101.064 21.304C101.512 20.4933 101.736 19.544 101.736 18.456C101.736 17.3467 101.512 16.3973 101.064 15.608C100.637 14.7973 100.04 14.1787 99.2718 13.752C98.5038 13.3253 97.6398 13.112 96.6798 13.112C95.6984 13.112 94.8238 13.3253 94.0558 13.752C93.3091 14.1787 92.7118 14.7973 92.2638 15.608C91.8158 16.3973 91.5918 17.3467 91.5918 18.456C91.5918 19.544 91.8158 20.4933 92.2638 21.304C92.7118 22.1147 93.3091 22.7333 94.0558 23.16C94.8238 23.5867 95.6878 23.8 96.6478 23.8ZM131.161 9.72C132.526 9.72 133.731 9.98667 134.777 10.52C135.843 11.0533 136.675 11.8747 137.273 12.984C137.87 14.072 138.169 15.48 138.169 17.208V27H134.169V17.72C134.169 16.2053 133.838 15.0747 133.177 14.328C132.515 13.5813 131.566 13.208 130.329 13.208C129.454 13.208 128.675 13.4 127.993 13.784C127.331 14.168 126.809 14.7333 126.425 15.48C126.062 16.2267 125.881 17.176 125.881 18.328V27H121.881V17.72C121.881 16.2053 121.55 15.0747 120.889 14.328C120.227 13.5813 119.278 13.208 118.041 13.208C117.166 13.208 116.387 13.4 115.705 13.784C115.043 14.168 114.521 14.7333 114.137 15.48C113.774 16.2267 113.593 17.176 113.593 18.328V27H109.593V9.912H113.401V14.456L112.729 13.112C113.305 12.0027 114.137 11.16 115.225 10.584C116.334 10.008 117.593 9.72 119.001 9.72C120.601 9.72 121.987 10.1147 123.161 10.904C124.355 11.6933 125.145 12.888 125.529 14.488L123.961 13.944C124.515 12.664 125.433 11.64 126.713 10.872C127.993 10.104 129.475 9.72 131.161 9.72ZM151.344 27.224C149.445 27.224 147.781 26.8507 146.352 26.104C144.944 25.336 143.845 24.2907 143.056 22.968C142.288 21.6453 141.904 20.1413 141.904 18.456C141.904 16.7493 142.277 15.2453 143.024 13.944C143.792 12.6213 144.837 11.5867 146.16 10.84C147.504 10.0933 149.029 9.72 150.736 9.72C152.4 9.72 153.882 10.0827 155.184 10.808C156.485 11.5333 157.509 12.5573 158.256 13.88C159.002 15.2027 159.376 16.76 159.376 18.552C159.376 18.7227 159.365 18.9147 159.344 19.128C159.344 19.3413 159.333 19.544 159.312 19.736H145.072V17.08H157.2L155.632 17.912C155.653 16.9307 155.45 16.0667 155.024 15.32C154.597 14.5733 154.01 13.9867 153.264 13.56C152.538 13.1333 151.696 12.92 150.736 12.92C149.754 12.92 148.89 13.1333 148.144 13.56C147.418 13.9867 146.842 14.584 146.416 15.352C146.01 16.0987 145.808 16.984 145.808 18.008V18.648C145.808 19.672 146.042 20.5787 146.512 21.368C146.981 22.1573 147.642 22.7653 148.496 23.192C149.349 23.6187 150.33 23.832 151.44 23.832C152.4 23.832 153.264 23.6827 154.032 23.384C154.8 23.0853 155.482 22.616 156.08 21.976L158.224 24.44C157.456 25.336 156.485 26.0293 155.312 26.52C154.16 26.9893 152.837 27.224 151.344 27.224ZM178.494 27.224C176.616 27.224 175.166 26.744 174.141 25.784C173.118 24.8027 172.606 23.3627 172.606 21.464V6.136H176.606V21.368C176.606 22.1787 176.808 22.808 177.214 23.256C177.64 23.704 178.227 23.928 178.974 23.928C179.87 23.928 180.616 23.6933 181.214 23.224L182.334 26.072C181.864 26.456 181.288 26.744 180.606 26.936C179.923 27.128 179.219 27.224 178.494 27.224ZM169.79 13.24V10.04H181.182V13.24H169.79ZM192.742 27.224C190.992 27.224 189.435 26.8507 188.07 26.104C186.704 25.336 185.627 24.2907 184.838 22.968C184.048 21.6453 183.654 20.1413 183.654 18.456C183.654 16.7493 184.048 15.2453 184.838 13.944C185.627 12.6213 186.704 11.5867 188.07 10.84C189.435 10.0933 190.992 9.72 192.742 9.72C194.512 9.72 196.08 10.0933 197.446 10.84C198.832 11.5867 199.91 12.6107 200.678 13.912C201.467 15.2133 201.862 16.728 201.862 18.456C201.862 20.1413 201.467 21.6453 200.678 22.968C199.91 24.2907 198.832 25.336 197.446 26.104C196.08 26.8507 194.512 27.224 192.742 27.224ZM192.742 23.8C193.723 23.8 194.598 23.5867 195.366 23.16C196.134 22.7333 196.731 22.1147 197.158 21.304C197.606 20.4933 197.83 19.544 197.83 18.456C197.83 17.3467 197.606 16.3973 197.158 15.608C196.731 14.7973 196.134 14.1787 195.366 13.752C194.598 13.3253 193.734 13.112 192.774 13.112C191.792 13.112 190.918 13.3253 190.15 13.752C189.403 14.1787 188.806 14.7973 188.358 15.608C187.91 16.3973 187.686 17.3467 187.686 18.456C187.686 19.544 187.91 20.4933 188.358 21.304C188.806 22.1147 189.403 22.7333 190.15 23.16C190.918 23.5867 191.782 23.8 192.742 23.8ZM219.458 27V8.12H212.034V4.6H231.042V8.12H223.618V27H219.458ZM240.606 27.224C239.155 27.224 237.875 26.9573 236.766 26.424C235.657 25.8693 234.793 25.0373 234.174 23.928C233.555 22.7973 233.246 21.3787 233.246 19.672V9.912H237.246V19.128C237.246 20.664 237.587 21.816 238.27 22.584C238.974 23.3307 239.966 23.704 241.246 23.704C242.185 23.704 242.995 23.512 243.678 23.128C244.382 22.744 244.926 22.168 245.31 21.4C245.715 20.632 245.918 19.6827 245.918 18.552V9.912H249.918V27H246.11V22.392L246.782 23.8C246.206 24.9093 245.363 25.7627 244.254 26.36C243.145 26.936 241.929 27.224 240.606 27.224ZM264.851 9.72C266.217 9.72 267.433 9.98667 268.499 10.52C269.587 11.0533 270.441 11.8747 271.059 12.984C271.678 14.072 271.987 15.48 271.987 17.208V27H267.987V17.72C267.987 16.2053 267.625 15.0747 266.899 14.328C266.195 13.5813 265.203 13.208 263.923 13.208C262.985 13.208 262.153 13.4 261.427 13.784C260.702 14.168 260.137 14.744 259.731 15.512C259.347 16.2587 259.155 17.208 259.155 18.36V27H255.155V9.912H258.963V14.52L258.291 13.112C258.889 12.024 259.753 11.192 260.883 10.616C262.035 10.0187 263.358 9.72 264.851 9.72ZM285.125 27.224C283.226 27.224 281.562 26.8507 280.133 26.104C278.725 25.336 277.626 24.2907 276.837 22.968C276.069 21.6453 275.685 20.1413 275.685 18.456C275.685 16.7493 276.058 15.2453 276.805 13.944C277.573 12.6213 278.618 11.5867 279.941 10.84C281.285 10.0933 282.81 9.72 284.517 9.72C286.181 9.72 287.663 10.0827 288.965 10.808C290.266 11.5333 291.29 12.5573 292.037 13.88C292.783 15.2027 293.157 16.76 293.157 18.552C293.157 18.7227 293.146 18.9147 293.125 19.128C293.125 19.3413 293.114 19.544 293.093 19.736H278.853V17.08H290.981L289.413 17.912C289.434 16.9307 289.231 16.0667 288.805 15.32C288.378 14.5733 287.791 13.9867 287.045 13.56C286.319 13.1333 285.477 12.92 284.517 12.92C283.535 12.92 282.671 13.1333 281.925 13.56C281.199 13.9867 280.623 14.584 280.197 15.352C279.791 16.0987 279.589 16.984 279.589 18.008V18.648C279.589 19.672 279.823 20.5787 280.293 21.368C280.762 22.1573 281.423 22.7653 282.277 23.192C283.13 23.6187 284.111 23.832 285.221 23.832C286.181 23.832 287.045 23.6827 287.813 23.384C288.581 23.0853 289.263 22.616 289.861 21.976L292.005 24.44C291.237 25.336 290.266 26.0293 289.093 26.52C287.941 26.9893 286.618 27.224 285.125 27.224ZM297.543 27V8.952C297.543 7.16 298.066 5.73067 299.111 4.664C300.178 3.576 301.692 3.032 303.655 3.032C304.359 3.032 305.02 3.10667 305.639 3.256C306.279 3.40533 306.812 3.64 307.239 3.96L306.151 6.968C305.852 6.73333 305.511 6.56267 305.127 6.456C304.743 6.328 304.348 6.264 303.943 6.264C303.111 6.264 302.482 6.49867 302.055 6.968C301.628 7.416 301.415 8.09867 301.415 9.016V10.936L301.543 12.728V27H297.543ZM294.727 13.24V10.04H306.119V13.24H294.727ZM310.532 33.432C309.7 33.432 308.868 33.2933 308.036 33.016C307.204 32.7387 306.511 32.3547 305.956 31.864L307.556 28.92C307.961 29.2827 308.42 29.5707 308.932 29.784C309.444 29.9973 309.967 30.104 310.5 30.104C311.225 30.104 311.812 29.9227 312.26 29.56C312.708 29.1973 313.124 28.5893 313.508 27.736L314.5 25.496L314.82 25.016L321.284 9.912H325.124L317.124 28.376C316.591 29.656 315.993 30.6693 315.332 31.416C314.692 32.1627 313.967 32.6853 313.156 32.984C312.367 33.2827 311.492 33.432 310.532 33.432ZM314.052 27.608L306.34 9.912H310.5L316.772 24.664L314.052 27.608Z" fill="#A5023D"/>
<path d="M12.288 27L9.44033 27.9438L10.1218 30H12.288V27ZM4.864 4.6V1.6H0.709239L2.01633 5.5438L4.864 4.6ZM9.184 4.6L12.0354 3.66755L11.3593 1.6H9.184V4.6ZM15.808 24.856V27.856H19.9454L18.6594 23.9235L15.808 24.856ZM13.664 24.856L10.8234 23.8912L9.47672 27.856H13.664V24.856ZM20.544 4.6V1.6H18.3946L17.7034 3.63518L20.544 4.6ZM24.384 4.6L27.2327 3.65942L26.5528 1.6H24.384V4.6ZM31.072 24.856V27.856H35.2218L33.9207 23.9154L31.072 24.856ZM28.992 24.856L26.1473 23.9033L24.8235 27.856H28.992V24.856ZM35.776 4.6V1.6H33.617L32.9313 3.64727L35.776 4.6ZM39.744 4.6L42.5917 5.5438L43.8988 1.6H39.744V4.6ZM32.32 27V30H34.4862L35.1677 27.9438L32.32 27ZM27.904 27L25.0589 27.9517L25.7441 30H27.904V27ZM21.792 8.728V5.728H17.6251L18.9469 9.67967L21.792 8.728ZM22.944 8.728L25.7845 9.69308L27.1317 5.728H22.944V8.728ZM16.736 27V30H18.8852L19.5765 27.9651L16.736 27ZM15.1357 26.0562L7.71167 3.6562L2.01633 5.5438L9.44033 27.9438L15.1357 26.0562ZM4.864 7.6H9.184V1.6H4.864V7.6ZM6.33259 5.53245L12.9566 25.7885L18.6594 23.9235L12.0354 3.66755L6.33259 5.53245ZM15.808 21.856H13.664V27.856H15.808V21.856ZM16.5046 25.8208L23.3846 5.56482L17.7034 3.63518L10.8234 23.8912L16.5046 25.8208ZM20.544 7.6H24.384V1.6H20.544V7.6ZM21.5353 5.54058L28.2233 25.7966L33.9207 23.9154L27.2327 3.65942L21.5353 5.54058ZM31.072 21.856H28.992V27.856H31.072V21.856ZM31.8367 25.8087L38.6207 5.55273L32.9313 3.64727L26.1473 23.9033L31.8367 25.8087ZM35.776 7.6H39.744V1.6H35.776V7.6ZM36.8963 3.6562L29.4723 26.0562L35.1677 27.9438L42.5917 5.5438L36.8963 3.6562ZM32.32 24H27.904V30H32.32V24ZM30.7491 26.0483L24.6371 7.77633L18.9469 9.67967L25.0589 27.9517L30.7491 26.0483ZM21.792 11.728H22.944V5.728H21.792V11.728ZM20.1035 7.76292L13.8955 26.0349L19.5765 27.9651L25.7845 9.69308L20.1035 7.76292ZM16.736 24H12.288V30H16.736V24ZM44.5078 26.104L43.0712 28.7377L43.0948 28.7506L43.1187 28.763L44.5078 26.104ZM41.2118 22.968L38.6174 24.4744L38.6264 24.4899L38.6356 24.5054L41.2118 22.968ZM41.1798 13.944L38.5854 12.4376L38.5815 12.4443L38.5776 12.451L41.1798 13.944ZM44.3158 10.84L42.8588 8.21753L42.8499 8.2225L42.841 8.22753L44.3158 10.84ZM53.3398 10.808L54.8003 8.18756L54.8003 8.18756L53.3398 10.808ZM57.4998 19.128L54.5146 18.8295L54.4998 18.9784V19.128H57.4998ZM57.4678 19.736V22.736H60.1529L60.4494 20.0673L57.4678 19.736ZM43.2278 19.736H40.2278V22.736H43.2278V19.736ZM43.2278 17.08V14.08H40.2278V17.08H43.2278ZM55.3558 17.08L56.7619 19.73L55.3558 14.08V17.08ZM53.7878 17.912L50.7885 17.8468L50.6773 22.9586L55.1939 20.562L53.7878 17.912ZM53.1798 15.32L50.575 16.8084L50.575 16.8084L53.1798 15.32ZM51.4198 13.56L49.8987 16.1458L49.915 16.1554L49.9313 16.1647L51.4198 13.56ZM46.2998 13.56L44.8113 10.9553L44.795 10.9646L44.7787 10.9742L46.2998 13.56ZM44.5718 15.352L41.9493 13.8951L41.9422 13.9079L41.9352 13.9207L44.5718 15.352ZM46.6518 23.192L45.3101 25.8753L45.3101 25.8753L46.6518 23.192ZM52.1878 23.384L53.2751 26.18L53.2751 26.18L52.1878 23.384ZM54.2358 21.976L56.4989 20.0067L54.3139 17.4955L52.0426 19.929L54.2358 21.976ZM56.3798 24.44L58.6575 26.3924L60.3436 24.4253L58.6429 22.4707L56.3798 24.44ZM53.4678 26.52L54.5996 29.2983L54.6124 29.2931L54.6252 29.2877L53.4678 26.52ZM49.4998 24.224C47.9991 24.224 46.8274 23.9311 45.8968 23.445L43.1187 28.763C45.0468 29.7703 47.203 30.224 49.4998 30.224V24.224ZM45.9443 23.4703C44.9871 22.9482 44.2906 22.2731 43.7879 21.4306L38.6356 24.5054C39.7115 26.3083 41.2124 27.7238 43.0712 28.7377L45.9443 23.4703ZM43.8061 21.4616C43.3303 20.6421 43.0598 19.6676 43.0598 18.456H37.0598C37.0598 20.6151 37.5572 22.6485 38.6174 24.4744L43.8061 21.4616ZM43.0598 18.456C43.0598 17.2 43.3301 16.2244 43.7819 15.437L38.5776 12.451C37.5361 14.2663 37.0598 16.2987 37.0598 18.456H43.0598ZM43.7741 15.4504C44.276 14.5861 44.9362 13.9347 45.7905 13.4525L42.841 8.22753C41.0499 9.2386 39.6195 10.6566 38.5854 12.4376L43.7741 15.4504ZM45.7727 13.4625C46.6235 12.9898 47.6376 12.72 48.8918 12.72V6.72C46.7325 6.72 44.696 7.19686 42.8588 8.21753L45.7727 13.4625ZM48.8918 12.72C50.1054 12.72 51.0748 12.9801 51.8792 13.4284L54.8003 8.18756C53.0021 7.18524 51.0061 6.72 48.8918 6.72V12.72ZM51.8792 13.4284C52.6887 13.8796 53.3183 14.5028 53.7993 15.3548L59.0242 12.4052C58.0118 10.6119 56.5935 9.18703 54.8003 8.18756L51.8792 13.4284ZM53.7993 15.3548C54.2497 16.1526 54.5318 17.1834 54.5318 18.552H60.5318C60.5318 16.3366 60.0672 14.2527 59.0242 12.4052L53.7993 15.3548ZM54.5318 18.552C54.5318 18.6016 54.5284 18.6915 54.5146 18.8295L60.4849 19.4265C60.5137 19.1378 60.5318 18.8438 60.5318 18.552H54.5318ZM54.4998 19.128C54.4998 19.2419 54.494 19.3334 54.4861 19.4047L60.4494 20.0673C60.4841 19.7546 60.4998 19.4407 60.4998 19.128H54.4998ZM57.4678 16.736H43.2278V22.736H57.4678V16.736ZM46.2278 19.736V17.08H40.2278V19.736H46.2278ZM43.2278 20.08H55.3558V14.08H43.2278V20.08ZM53.9496 14.43L52.3816 15.262L55.1939 20.562L56.7619 19.73L53.9496 14.43ZM56.787 17.9772C56.8185 16.5303 56.5176 15.1145 55.7845 13.8316L50.575 16.8084C50.6952 17.0188 50.7997 17.3311 50.7885 17.8468L56.787 17.9772ZM55.7845 13.8316C55.092 12.6198 54.1199 11.6477 52.9082 10.9553L49.9313 16.1647C50.2129 16.3256 50.4141 16.5268 50.575 16.8084L55.7845 13.8316ZM52.9408 10.9742C51.6926 10.2399 50.31 9.92 48.8918 9.92V15.92C49.3935 15.92 49.6963 16.0267 49.8987 16.1458L52.9408 10.9742ZM48.8918 9.92C47.4632 9.92 46.0721 10.2348 44.8113 10.9553L47.7882 16.1647C48.0207 16.0318 48.3577 15.92 48.8918 15.92V9.92ZM44.7787 10.9742C43.5714 11.6844 42.6239 12.6808 41.9493 13.8951L47.1942 16.8089C47.3729 16.4872 47.5775 16.2889 47.8208 16.1458L44.7787 10.9742ZM41.9352 13.9207C41.247 15.1885 40.9638 16.5861 40.9638 18.008H46.9638C46.9638 17.3819 47.0858 17.0089 47.2083 16.7833L41.9352 13.9207ZM40.9638 18.008V18.648H46.9638V18.008H40.9638ZM40.9638 18.648C40.9638 20.148 41.3132 21.5962 42.0891 22.9012L47.2464 19.8348C47.0837 19.5612 46.9638 19.196 46.9638 18.648H40.9638ZM42.0891 22.9012C42.864 24.2043 43.9639 25.2022 45.3101 25.8753L47.9934 20.5087C47.6329 20.3285 47.4102 20.1103 47.2464 19.8348L42.0891 22.9012ZM45.3101 25.8753C46.6428 26.5417 48.0964 26.832 49.5958 26.832V20.832C48.8764 20.832 48.3673 20.6957 47.9934 20.5087L45.3101 25.8753ZM49.5958 26.832C50.8673 26.832 52.1083 26.6338 53.2751 26.18L51.1004 20.588C50.7312 20.7316 50.2442 20.832 49.5958 20.832V26.832ZM53.2751 26.18C54.4893 25.7078 55.5436 24.9715 56.4289 24.023L52.0426 19.929C51.7333 20.2605 51.4222 20.4629 51.1004 20.588L53.2751 26.18ZM51.9726 23.9453L54.1166 26.4093L58.6429 22.4707L56.4989 20.0067L51.9726 23.9453ZM54.102 22.4876C53.662 23.0009 53.086 23.4279 52.3103 23.7523L54.6252 29.2877C56.1962 28.6308 57.5615 27.6711 58.6575 26.3924L54.102 22.4876ZM52.3359 23.7417C51.6076 24.0384 50.681 24.224 49.4998 24.224V30.224C51.3051 30.224 53.0239 29.9402 54.5996 29.2983L52.3359 23.7417ZM61.374 27H58.374V30H61.374V27ZM61.374 3.256V0.255999H58.374V3.256H61.374ZM65.374 3.256H68.374V0.255999H65.374V3.256ZM65.374 27V30H68.374V27H65.374ZM64.374 27V3.256H58.374V27H64.374ZM61.374 6.256H65.374V0.255999H61.374V6.256ZM62.374 3.256V27H68.374V3.256H62.374ZM65.374 24H61.374V30H65.374V24ZM73.664 26.104L72.2105 28.7284L72.2344 28.7416L72.2585 28.7544L73.664 26.104ZM70.4 22.968L67.8239 24.5054L67.8239 24.5054L70.4 22.968ZM70.4 13.944L72.965 15.4998L72.9706 15.4906L72.9761 15.4814L70.4 13.944ZM73.664 10.84L72.2585 8.18961L72.2501 8.19407L72.2417 8.19859L73.664 10.84ZM82.848 10.744L81.4177 13.3811L81.4442 13.3955L81.4709 13.4093L82.848 10.744ZM85.76 13.688L87.2716 16.2793L89.7171 14.8528L88.4345 12.3289L85.76 13.688ZM82.688 15.48L80.1515 17.082L81.698 19.5306L84.1996 18.0713L82.688 15.48ZM80.8 13.688L79.3963 16.3394L79.4121 16.3477L79.428 16.3559L80.8 13.688ZM75.776 13.752L74.3495 11.1129L74.3494 11.1129L75.776 13.752ZM73.92 15.608L76.5291 17.0888L76.5375 17.074L76.5457 17.0591L73.92 15.608ZM73.92 21.336L71.2943 22.7871L71.3025 22.802L71.3109 22.8168L73.92 21.336ZM75.776 23.16L77.2026 20.5209L77.2026 20.5209L75.776 23.16ZM80.8 23.224L79.428 20.5561L79.4121 20.5643L79.3963 20.5726L80.8 23.224ZM82.688 21.432L84.1996 18.8407L81.698 17.3814L80.1515 19.83L82.688 21.432ZM85.76 23.224L88.4253 24.6011L89.7336 22.0688L87.2716 20.6327L85.76 23.224ZM82.848 26.2L84.2783 28.8371L84.286 28.8329L84.2938 28.8286L82.848 26.2ZM78.464 24.224C77.1002 24.224 75.9931 23.9434 75.0695 23.4536L72.2585 28.7544C74.1509 29.7579 76.2438 30.224 78.464 30.224V24.224ZM75.1175 23.4796C74.1804 22.9606 73.4857 22.2845 72.9761 21.4306L67.8239 24.5054C68.893 26.2969 70.3743 27.7114 72.2105 28.7284L75.1175 23.4796ZM72.9761 21.4306C72.49 20.616 72.216 19.6526 72.216 18.456H66.216C66.216 20.6301 66.7314 22.6747 67.8239 24.5054L72.9761 21.4306ZM72.216 18.456C72.216 17.2297 72.4937 16.2769 72.965 15.4998L67.835 12.3882C66.7277 14.2137 66.216 16.269 66.216 18.456H72.216ZM72.9761 15.4814C73.4812 14.6351 74.1657 13.9771 75.0863 13.4814L72.2417 8.19859C70.389 9.19619 68.8975 10.6076 67.8239 12.4066L72.9761 15.4814ZM75.0695 13.4904C75.9931 13.0006 77.1002 12.72 78.464 12.72V6.72C76.2438 6.72 74.1509 7.18607 72.2585 8.18961L75.0695 13.4904ZM78.464 12.72C79.7099 12.72 80.6646 12.9726 81.4177 13.3811L84.2783 8.1069C82.5141 7.15005 80.5461 6.72 78.464 6.72V12.72ZM81.4709 13.4093C82.1844 13.7779 82.7051 14.2985 83.0855 15.0471L88.4345 12.3289C87.4923 10.4749 86.0716 9.03276 84.2251 8.07872L81.4709 13.4093ZM84.2484 11.0967L81.1764 12.8887L84.1996 18.0713L87.2716 16.2793L84.2484 11.0967ZM85.2245 13.878C84.4678 12.6799 83.4595 11.6822 82.172 11.0201L79.428 16.3559C79.6339 16.4618 79.8842 16.6587 80.1515 17.082L85.2245 13.878ZM82.2037 11.0366C81.0284 10.4144 79.7545 10.112 78.432 10.112V16.112C78.8162 16.112 79.1209 16.1936 79.3963 16.3394L82.2037 11.0366ZM78.432 10.112C77.0003 10.112 75.6171 10.4276 74.3495 11.1129L77.2026 16.3911C77.5135 16.223 77.901 16.112 78.432 16.112V10.112ZM74.3494 11.1129C73.038 11.8218 72.0106 12.8608 71.2943 14.1569L76.5457 17.0591C76.7254 16.7339 76.9354 16.5356 77.2026 16.3911L74.3494 11.1129ZM71.3109 14.1272C70.5555 15.4582 70.248 16.9422 70.248 18.456H76.248C76.248 17.7511 76.3885 17.3365 76.5291 17.0888L71.3109 14.1272ZM70.248 18.456C70.248 19.9728 70.5565 21.4521 71.2943 22.7871L76.5457 19.8849C76.3875 19.5986 76.248 19.1579 76.248 18.456H70.248ZM71.3109 22.8168C72.0333 24.0895 73.0591 25.1016 74.3494 25.7991L77.2026 20.5209C76.9142 20.365 76.7027 20.1611 76.5291 19.8552L71.3109 22.8168ZM74.3494 25.7991C75.6171 26.4844 77.0003 26.8 78.432 26.8V20.8C77.901 20.8 77.5135 20.689 77.2026 20.5209L74.3494 25.7991ZM78.432 26.8C79.7545 26.8 81.0284 26.4976 82.2037 25.8754L79.3963 20.5726C79.1209 20.7184 78.8162 20.8 78.432 20.8V26.8ZM82.172 25.8919C83.4595 25.2298 84.4678 24.2321 85.2245 23.034L80.1515 19.83C79.8842 20.2533 79.6339 20.4502 79.428 20.5561L82.172 25.8919ZM81.1764 24.0233L84.2484 25.8153L87.2716 20.6327L84.1996 18.8407L81.1764 24.0233ZM83.0947 21.8469C82.7107 22.5902 82.1683 23.15 81.4022 23.5714L84.2938 28.8286C86.0877 27.842 87.4866 26.4178 88.4253 24.6011L83.0947 21.8469ZM81.4177 23.5629C80.6646 23.9714 79.7099 24.224 78.464 24.224V30.224C80.5461 30.224 82.5141 29.7939 84.2783 28.8371L81.4177 23.5629ZM91.9758 26.104L90.505 28.7187L90.5206 28.7275L90.5363 28.7361L91.9758 26.104ZM88.7438 22.968L86.1676 24.5054L86.1676 24.5054L88.7438 22.968ZM88.7438 13.944L91.3088 15.4998L91.3144 15.4906L91.3199 15.4814L88.7438 13.944ZM91.9758 10.84L93.4152 13.4721L93.4152 13.4721L91.9758 10.84ZM101.352 10.84L99.9123 13.4721L99.9209 13.4768L99.9295 13.4814L101.352 10.84ZM104.584 13.912L102 15.4368L102.009 15.4524L102.019 15.4678L104.584 13.912ZM104.584 22.968L102.008 21.4306L101.998 21.4461L101.989 21.4616L104.584 22.968ZM101.352 26.104L102.791 28.7361L102.798 28.7323L102.805 28.7284L101.352 26.104ZM99.2718 23.16L97.8148 20.5375L97.8148 20.5375L99.2718 23.16ZM101.064 21.304L98.438 19.8529L98.4232 19.8797L98.409 19.9068L101.064 21.304ZM101.064 15.608L98.409 17.0052L98.4312 17.0474L98.4547 17.0888L101.064 15.608ZM99.2718 13.752L100.729 11.1295L100.729 11.1295L99.2718 13.752ZM94.0558 13.752L92.5988 11.1295L92.583 11.1383L92.5673 11.1473L94.0558 13.752ZM92.2638 15.608L94.8728 17.0888L94.8812 17.074L94.8895 17.0591L92.2638 15.608ZM92.2638 21.304L89.638 22.7551L89.638 22.7551L92.2638 21.304ZM94.0558 23.16L92.5673 25.7647L92.583 25.7737L92.5988 25.7825L94.0558 23.16ZM96.6478 24.224C95.338 24.224 94.2866 23.9485 93.4152 23.4719L90.5363 28.7361C92.3955 29.7529 94.4588 30.224 96.6478 30.224V24.224ZM93.4465 23.4893C92.5292 22.9733 91.8363 22.296 91.3199 21.4306L86.1676 24.5054C87.2299 26.2854 88.6917 27.6987 90.505 28.7187L93.4465 23.4893ZM91.3199 21.4306C90.8337 20.616 90.5598 19.6526 90.5598 18.456H84.5598C84.5598 20.6301 85.0751 22.6747 86.1676 24.5054L91.3199 21.4306ZM90.5598 18.456C90.5598 17.2297 90.8374 16.2769 91.3088 15.4998L86.1787 12.3882C85.0714 14.2137 84.5598 16.269 84.5598 18.456H90.5598ZM91.3199 15.4814C91.8319 14.6235 92.5146 13.9646 93.4152 13.4721L90.5363 8.20789C88.7063 9.20869 87.2343 10.6192 86.1676 12.4066L91.3199 15.4814ZM93.4152 13.4721C94.2866 12.9955 95.338 12.72 96.6478 12.72V6.72C94.4588 6.72 92.3955 7.19112 90.5363 8.20789L93.4152 13.4721ZM96.6478 12.72C97.9856 12.72 99.0461 12.9984 99.9123 13.4721L102.791 8.20789C100.927 7.18825 98.8513 6.72 96.6478 6.72V12.72ZM99.9295 13.4814C100.856 13.9802 101.522 14.627 102 15.4368L107.167 12.3872C106.109 10.5943 104.621 9.19315 102.774 8.19859L99.9295 13.4814ZM102.019 15.4678C102.487 16.2392 102.768 17.2007 102.768 18.456H108.768C108.768 16.2553 108.26 14.1875 107.149 12.3562L102.019 15.4678ZM102.768 18.456C102.768 19.6526 102.494 20.616 102.008 21.4306L107.16 24.5054C108.252 22.6747 108.768 20.6301 108.768 18.456H102.768ZM101.989 21.4616C101.504 22.2978 100.829 22.9643 99.8983 23.4796L102.805 28.7284C104.648 27.7077 106.128 26.2835 107.178 24.4744L101.989 21.4616ZM99.9123 23.4719C99.0461 23.9456 97.9856 24.224 96.6478 24.224V30.224C98.8513 30.224 100.927 29.7557 102.791 28.7361L99.9123 23.4719ZM96.6478 26.8C98.0781 26.8 99.4647 26.4847 100.729 25.7825L97.8148 20.5375C97.5428 20.6887 97.18 20.8 96.6478 20.8V26.8ZM100.729 25.7825C102.029 25.06 103.032 24.0048 103.719 22.7012L98.409 19.9068C98.2418 20.2245 98.0504 20.4066 97.8148 20.5375L100.729 25.7825ZM103.689 22.7551C104.423 21.4283 104.736 19.9626 104.736 18.456H98.7358C98.7358 19.1254 98.6008 19.5584 98.438 19.8529L103.689 22.7551ZM104.736 18.456C104.736 16.9422 104.428 15.4582 103.673 14.1272L98.4547 17.0888C98.5952 17.3365 98.7358 17.7511 98.7358 18.456H104.736ZM103.719 14.2108C103.032 12.9072 102.029 11.852 100.729 11.1295L97.8148 16.3745C98.0504 16.5054 98.2418 16.6875 98.409 17.0052L103.719 14.2108ZM100.729 11.1295C99.4745 10.4327 98.1011 10.112 96.6798 10.112V16.112C97.1784 16.112 97.533 16.2179 97.8148 16.3745L100.729 11.1295ZM96.6798 10.112C95.2494 10.112 93.8628 10.4273 92.5988 11.1295L95.5127 16.3745C95.7847 16.2233 96.1475 16.112 96.6798 16.112V10.112ZM92.5673 11.1473C91.3061 11.868 90.3309 12.9032 89.638 14.1569L94.8895 17.0591C95.0926 16.6915 95.312 16.4894 95.5442 16.3567L92.5673 11.1473ZM89.6547 14.1272C88.8992 15.4582 88.5918 16.9422 88.5918 18.456H94.5918C94.5918 17.7511 94.7323 17.3365 94.8728 17.0888L89.6547 14.1272ZM88.5918 18.456C88.5918 19.9626 88.9048 21.4283 89.638 22.7551L94.8895 19.8529C94.7267 19.5584 94.5918 19.1254 94.5918 18.456H88.5918ZM89.638 22.7551C90.3309 24.0088 91.3061 25.044 92.5673 25.7647L95.5442 20.5553C95.312 20.4226 95.0926 20.2205 94.8895 19.8529L89.638 22.7551ZM92.5988 25.7825C93.853 26.4793 95.2264 26.8 96.6478 26.8V20.8C96.1491 20.8 95.7945 20.6941 95.5127 20.5375L92.5988 25.7825ZM134.777 10.52L133.413 13.1923L133.424 13.1978L133.435 13.2033L134.777 10.52ZM137.273 12.984L134.631 14.4063L134.637 14.4171L134.643 14.4278L137.273 12.984ZM138.169 27V30H141.169V27H138.169ZM134.169 27H131.169V30H134.169V27ZM133.177 14.328L135.423 12.3389L135.423 12.3389L133.177 14.328ZM127.993 13.784L126.522 11.1693L126.504 11.1793L126.486 11.1896L127.993 13.784ZM126.425 15.48L123.757 14.108L123.741 14.1384L123.726 14.1693L126.425 15.48ZM125.881 27V30H128.881V27H125.881ZM121.881 27H118.881V30H121.881V27ZM120.889 14.328L123.135 12.3389L123.135 12.3389L120.889 14.328ZM115.705 13.784L114.234 11.1693L114.216 11.1793L114.198 11.1896L115.705 13.784ZM114.137 15.48L111.469 14.108L111.453 14.1384L111.438 14.1693L114.137 15.48ZM113.593 27V30H116.593V27H113.593ZM109.593 27H106.593V30H109.593V27ZM109.593 9.912V6.912H106.593V9.912H109.593ZM113.401 9.912H116.401V6.912H113.401V9.912ZM113.401 14.456L110.717 15.7976L116.401 14.456H113.401ZM112.729 13.112L110.066 11.7296L109.362 13.0863L110.045 14.4536L112.729 13.112ZM115.225 10.584L113.842 7.92151L113.832 7.92703L113.821 7.93264L115.225 10.584ZM123.161 10.904L121.486 13.3932L121.497 13.4001L121.507 13.407L123.161 10.904ZM125.529 14.488L124.545 17.3223L129.725 19.1194L128.446 13.7879L125.529 14.488ZM123.961 13.944L121.208 12.7512L119.922 15.7183L122.977 16.7783L123.961 13.944ZM126.713 10.872L128.256 13.4445L128.256 13.4445L126.713 10.872ZM131.161 12.72C132.13 12.72 132.854 12.907 133.413 13.1923L136.14 7.84771C134.609 7.06631 132.923 6.72 131.161 6.72V12.72ZM133.435 13.2033C133.917 13.4441 134.309 13.8086 134.631 14.4063L139.914 11.5617C139.041 9.94075 137.77 8.66255 136.118 7.83672L133.435 13.2033ZM134.643 14.4278C134.921 14.9337 135.169 15.7971 135.169 17.208H141.169C141.169 15.1629 140.819 13.2103 139.902 11.5402L134.643 14.4278ZM135.169 17.208V27H141.169V17.208H135.169ZM138.169 24H134.169V30H138.169V24ZM137.169 27V17.72H131.169V27H137.169ZM137.169 17.72C137.169 15.8396 136.768 13.8578 135.423 12.3389L130.931 16.3171C130.908 16.2915 131.169 16.571 131.169 17.72H137.169ZM135.423 12.3389C134.059 10.7994 132.202 10.208 130.329 10.208V16.208C130.649 16.208 130.812 16.2566 130.871 16.2799C130.915 16.2974 130.922 16.3064 130.931 16.3171L135.423 12.3389ZM130.329 10.208C129 10.208 127.704 10.5042 126.522 11.1693L129.464 16.3987C129.647 16.2958 129.908 16.208 130.329 16.208V10.208ZM126.486 11.1896C125.281 11.8896 124.377 12.903 123.757 14.108L129.093 16.852C129.241 16.5636 129.382 16.4464 129.499 16.3784L126.486 11.1896ZM123.726 14.1693C123.104 15.451 122.881 16.8876 122.881 18.328H128.881C128.881 17.4644 129.021 17.0023 129.123 16.7907L123.726 14.1693ZM122.881 18.328V27H128.881V18.328H122.881ZM125.881 24H121.881V30H125.881V24ZM124.881 27V17.72H118.881V27H124.881ZM124.881 17.72C124.881 15.8396 124.48 13.8578 123.135 12.3389L118.643 16.3171C118.62 16.2915 118.881 16.571 118.881 17.72H124.881ZM123.135 12.3389C121.771 10.7994 119.914 10.208 118.041 10.208V16.208C118.361 16.208 118.524 16.2566 118.583 16.2799C118.627 16.2974 118.634 16.3064 118.643 16.3171L123.135 12.3389ZM118.041 10.208C116.712 10.208 115.416 10.5042 114.234 11.1693L117.176 16.3987C117.359 16.2958 117.62 16.208 118.041 16.208V10.208ZM114.198 11.1896C112.993 11.8896 112.089 12.903 111.469 14.108L116.805 16.852C116.953 16.5636 117.094 16.4464 117.211 16.3784L114.198 11.1896ZM111.438 14.1693C110.816 15.451 110.593 16.8876 110.593 18.328H116.593C116.593 17.4644 116.733 17.0023 116.835 16.7907L111.438 14.1693ZM110.593 18.328V27H116.593V18.328H110.593ZM113.593 24H109.593V30H113.593V24ZM112.593 27V9.912H106.593V27H112.593ZM109.593 12.912H113.401V6.912H109.593V12.912ZM110.401 9.912V14.456H116.401V9.912H110.401ZM116.084 13.1144L115.412 11.7704L110.045 14.4536L110.717 15.7976L116.084 13.1144ZM115.391 14.4944C115.691 13.9173 116.088 13.5215 116.628 13.2354L113.821 7.93264C112.186 8.79852 110.919 10.088 110.066 11.7296L115.391 14.4944ZM116.607 13.2465C117.238 12.919 118.012 12.72 119.001 12.72V6.72C117.173 6.72 115.43 7.09704 113.842 7.92151L116.607 13.2465ZM119.001 12.72C120.085 12.72 120.871 12.9794 121.486 13.3932L124.835 8.41483C123.104 7.24997 121.116 6.72 119.001 6.72V12.72ZM121.507 13.407C121.973 13.7146 122.377 14.2091 122.612 15.1881L128.446 13.7879C127.913 11.5669 126.738 9.67208 124.815 8.40099L121.507 13.407ZM126.512 11.6537L124.944 11.1097L122.977 16.7783L124.545 17.3223L126.512 11.6537ZM126.713 15.1368C127.001 14.4729 127.474 13.914 128.256 13.4445L125.169 8.29952C123.392 9.36598 122.03 10.8551 121.208 12.7512L126.713 15.1368ZM128.256 13.4445C129.012 12.991 129.947 12.72 131.161 12.72V6.72C129.003 6.72 126.973 7.21702 125.169 8.29952L128.256 13.4445ZM146.352 26.104L144.915 28.7377L144.939 28.7506L144.962 28.763L146.352 26.104ZM143.056 22.968L140.461 24.4744L140.47 24.4899L140.479 24.5054L143.056 22.968ZM143.024 13.944L140.429 12.4376L140.425 12.4443L140.421 12.451L143.024 13.944ZM146.16 10.84L144.703 8.21753L144.694 8.2225L144.685 8.22753L146.16 10.84ZM155.184 10.808L156.644 8.18756L156.644 8.18756L155.184 10.808ZM159.344 19.128L156.358 18.8295L156.344 18.9784V19.128H159.344ZM159.312 19.736V22.736H161.997L162.293 20.0673L159.312 19.736ZM145.072 19.736H142.072V22.736H145.072V19.736ZM145.072 17.08V14.08H142.072V17.08H145.072ZM157.2 17.08L158.606 19.73L157.2 14.08V17.08ZM155.632 17.912L152.632 17.8468L152.521 22.9586L157.038 20.562L155.632 17.912ZM155.024 15.32L152.419 16.8084L152.419 16.8084L155.024 15.32ZM153.264 13.56L151.742 16.1458L151.759 16.1554L151.775 16.1647L153.264 13.56ZM148.144 13.56L146.655 10.9553L146.639 10.9646L146.622 10.9742L148.144 13.56ZM146.416 15.352L143.793 13.8951L143.786 13.9079L143.779 13.9207L146.416 15.352ZM148.496 23.192L147.154 25.8753L147.154 25.8753L148.496 23.192ZM154.032 23.384L155.119 26.18L155.119 26.18L154.032 23.384ZM156.08 21.976L158.343 20.0067L156.158 17.4955L153.886 19.929L156.08 21.976ZM158.224 24.44L160.501 26.3924L162.187 24.4253L160.487 22.4707L158.224 24.44ZM155.312 26.52L156.443 29.2983L156.456 29.2931L156.469 29.2877L155.312 26.52ZM151.344 24.224C149.843 24.224 148.671 23.9311 147.741 23.445L144.962 28.763C146.891 29.7703 149.047 30.224 151.344 30.224V24.224ZM147.788 23.4703C146.831 22.9482 146.134 22.2731 145.632 21.4306L140.479 24.5054C141.555 26.3083 143.056 27.7238 144.915 28.7377L147.788 23.4703ZM145.65 21.4616C145.174 20.6421 144.904 19.6676 144.904 18.456H138.904C138.904 20.6151 139.401 22.6485 140.461 24.4744L145.65 21.4616ZM144.904 18.456C144.904 17.2 145.174 16.2244 145.626 15.437L140.421 12.451C139.38 14.2663 138.904 16.2987 138.904 18.456H144.904ZM145.618 15.4504C146.12 14.5861 146.78 13.9347 147.634 13.4525L144.685 8.22753C142.894 9.2386 141.463 10.6566 140.429 12.4376L145.618 15.4504ZM147.616 13.4625C148.467 12.9898 149.481 12.72 150.736 12.72V6.72C148.576 6.72 146.54 7.19686 144.703 8.21753L147.616 13.4625ZM150.736 12.72C151.949 12.72 152.919 12.9801 153.723 13.4284L156.644 8.18756C154.846 7.18524 152.85 6.72 150.736 6.72V12.72ZM153.723 13.4284C154.532 13.8796 155.162 14.5028 155.643 15.3548L160.868 12.4052C159.856 10.6119 158.437 9.18703 156.644 8.18756L153.723 13.4284ZM155.643 15.3548C156.093 16.1526 156.376 17.1834 156.376 18.552H162.376C162.376 16.3366 161.911 14.2527 160.868 12.4052L155.643 15.3548ZM156.376 18.552C156.376 18.6016 156.372 18.6915 156.358 18.8295L162.329 19.4265C162.357 19.1378 162.376 18.8438 162.376 18.552H156.376ZM156.344 19.128C156.344 19.2419 156.338 19.3334 156.33 19.4047L162.293 20.0673C162.328 19.7546 162.344 19.4407 162.344 19.128H156.344ZM159.312 16.736H145.072V22.736H159.312V16.736ZM148.072 19.736V17.08H142.072V19.736H148.072ZM145.072 20.08H157.2V14.08H145.072V20.08ZM155.793 14.43L154.225 15.262L157.038 20.562L158.606 19.73L155.793 14.43ZM158.631 17.9772C158.662 16.5303 158.361 15.1145 157.628 13.8316L152.419 16.8084C152.539 17.0188 152.643 17.3311 152.632 17.8468L158.631 17.9772ZM157.628 13.8316C156.936 12.6198 155.964 11.6477 154.752 10.9553L151.775 16.1647C152.057 16.3256 152.258 16.5268 152.419 16.8084L157.628 13.8316ZM154.785 10.9742C153.536 10.2399 152.154 9.92 150.736 9.92V15.92C151.237 15.92 151.54 16.0267 151.742 16.1458L154.785 10.9742ZM150.736 9.92C149.307 9.92 147.916 10.2348 146.655 10.9553L149.632 16.1647C149.864 16.0318 150.201 15.92 150.736 15.92V9.92ZM146.622 10.9742C145.415 11.6844 144.468 12.6808 143.793 13.8951L149.038 16.8089C149.217 16.4872 149.421 16.2889 149.665 16.1458L146.622 10.9742ZM143.779 13.9207C143.091 15.1885 142.808 16.5861 142.808 18.008H148.808C148.808 17.3819 148.93 17.0089 149.052 16.7833L143.779 13.9207ZM142.808 18.008V18.648H148.808V18.008H142.808ZM142.808 18.648C142.808 20.148 143.157 21.5962 143.933 22.9012L149.09 19.8348C148.927 19.5612 148.808 19.196 148.808 18.648H142.808ZM143.933 22.9012C144.708 24.2043 145.808 25.2022 147.154 25.8753L149.837 20.5087C149.477 20.3285 149.254 20.1103 149.09 19.8348L143.933 22.9012ZM147.154 25.8753C148.487 26.5417 149.94 26.832 151.44 26.832V20.832C150.72 20.832 150.211 20.6957 149.837 20.5087L147.154 25.8753ZM151.44 26.832C152.711 26.832 153.952 26.6338 155.119 26.18L152.944 20.588C152.575 20.7316 152.088 20.832 151.44 20.832V26.832ZM155.119 26.18C156.333 25.7078 157.387 24.9715 158.273 24.023L153.886 19.929C153.577 20.2605 153.266 20.4629 152.944 20.588L155.119 26.18ZM153.816 23.9453L155.96 26.4093L160.487 22.4707L158.343 20.0067L153.816 23.9453ZM155.946 22.4876C155.506 23.0009 154.93 23.4279 154.154 23.7523L156.469 29.2877C158.04 28.6308 159.405 27.6711 160.501 26.3924L155.946 22.4876ZM154.18 23.7417C153.451 24.0384 152.525 24.224 151.344 24.224V30.224C153.149 30.224 154.868 29.9402 156.443 29.2983L154.18 23.7417ZM174.141 25.784L172.066 27.95L172.078 27.9614L172.09 27.9726L174.141 25.784ZM172.606 6.136V3.136H169.606V6.136H172.606ZM176.606 6.136H179.606V3.136H176.606V6.136ZM177.214 23.256L174.989 25.2687L175.015 25.2972L175.041 25.325L177.214 23.256ZM181.214 23.224L184.005 22.1261L182.53 18.3744L179.36 20.865L181.214 23.224ZM182.334 26.072L184.233 28.3939L185.926 27.0091L185.125 24.9741L182.334 26.072ZM180.606 26.936L181.418 29.824L180.606 26.936ZM169.79 13.24H166.79V16.24H169.79V13.24ZM169.79 10.04V7.04H166.79V10.04H169.79ZM181.182 10.04H184.182V7.04H181.182V10.04ZM181.182 13.24V16.24H184.182V13.24H181.182ZM178.494 24.224C177.115 24.224 176.495 23.8785 176.193 23.5954L172.09 27.9726C173.836 29.6095 176.117 30.224 178.494 30.224V24.224ZM176.217 23.618C175.963 23.3747 175.606 22.8325 175.606 21.464H169.606C169.606 23.8928 170.272 26.2306 172.066 27.95L176.217 23.618ZM175.606 21.464V6.136H169.606V21.464H175.606ZM172.606 9.136H176.606V3.136H172.606V9.136ZM173.606 6.136V21.368H179.606V6.136H173.606ZM173.606 21.368C173.606 22.6643 173.935 24.1037 174.989 25.2687L179.438 21.2433C179.489 21.2997 179.53 21.3576 179.56 21.4115C179.59 21.4648 179.606 21.5062 179.613 21.5284C179.626 21.5692 179.606 21.529 179.606 21.368H173.606ZM175.041 25.325C176.149 26.4881 177.589 26.928 178.974 26.928V20.928C178.898 20.928 178.937 20.9168 179.044 20.9573C179.161 21.0023 179.286 21.0824 179.386 21.187L175.041 25.325ZM178.974 26.928C180.416 26.928 181.85 26.539 183.067 25.583L179.36 20.865C179.355 20.869 179.344 20.878 179.306 20.89C179.262 20.9037 179.16 20.928 178.974 20.928V26.928ZM178.422 24.3219L179.542 27.1699L185.125 24.9741L184.005 22.1261L178.422 24.3219ZM180.434 23.7501C180.334 23.8321 180.145 23.9491 179.793 24.048L181.418 29.824C182.431 29.5389 183.395 29.0799 184.233 28.3939L180.434 23.7501ZM179.793 24.048C179.381 24.164 178.951 24.224 178.494 24.224V30.224C179.487 30.224 180.465 30.092 181.418 29.824L179.793 24.048ZM172.79 13.24V10.04H166.79V13.24H172.79ZM169.79 13.04H181.182V7.04H169.79V13.04ZM178.182 10.04V13.24H184.182V10.04H178.182ZM181.182 10.24H169.79V16.24H181.182V10.24ZM188.07 26.104L186.599 28.7187L186.614 28.7275L186.63 28.7361L188.07 26.104ZM184.838 22.968L182.261 24.5054L182.261 24.5054L184.838 22.968ZM184.838 13.944L187.403 15.4998L187.408 15.4906L187.414 15.4814L184.838 13.944ZM188.07 10.84L189.509 13.4721L189.509 13.4721L188.07 10.84ZM197.446 10.84L196.006 13.4721L196.015 13.4768L196.023 13.4814L197.446 10.84ZM200.678 13.912L198.094 15.4368L198.103 15.4524L198.112 15.4678L200.678 13.912ZM200.678 22.968L198.101 21.4306L198.092 21.4461L198.083 21.4616L200.678 22.968ZM197.446 26.104L198.885 28.7361L198.892 28.7323L198.899 28.7284L197.446 26.104ZM195.366 23.16L193.909 20.5375L193.909 20.5375L195.366 23.16ZM197.158 21.304L194.532 19.8529L194.517 19.8797L194.503 19.9068L197.158 21.304ZM197.158 15.608L194.503 17.0052L194.525 17.0474L194.548 17.0888L197.158 15.608ZM195.366 13.752L196.822 11.1295L196.822 11.1295L195.366 13.752ZM190.15 13.752L188.693 11.1295L188.677 11.1383L188.661 11.1473L190.15 13.752ZM188.358 15.608L190.967 17.0888L190.975 17.074L190.983 17.0591L188.358 15.608ZM188.358 21.304L185.732 22.7551L185.732 22.7551L188.358 21.304ZM190.15 23.16L188.661 25.7647L188.677 25.7737L188.693 25.7825L190.15 23.16ZM192.742 24.224C191.432 24.224 190.38 23.9485 189.509 23.4719L186.63 28.7361C188.489 29.7529 190.553 30.224 192.742 30.224V24.224ZM189.54 23.4893C188.623 22.9733 187.93 22.296 187.414 21.4306L182.261 24.5054C183.324 26.2854 184.785 27.6987 186.599 28.7187L189.54 23.4893ZM187.414 21.4306C186.927 20.616 186.654 19.6526 186.654 18.456H180.654C180.654 20.6301 181.169 22.6747 182.261 24.5054L187.414 21.4306ZM186.654 18.456C186.654 17.2297 186.931 16.2769 187.403 15.4998L182.272 12.3882C181.165 14.2137 180.654 16.269 180.654 18.456H186.654ZM187.414 15.4814C187.926 14.6235 188.608 13.9646 189.509 13.4721L186.63 8.20789C184.8 9.20869 183.328 10.6192 182.261 12.4066L187.414 15.4814ZM189.509 13.4721C190.38 12.9955 191.432 12.72 192.742 12.72V6.72C190.553 6.72 188.489 7.19112 186.63 8.20789L189.509 13.4721ZM192.742 12.72C194.079 12.72 195.14 12.9984 196.006 13.4721L198.885 8.20789C197.02 7.18825 194.945 6.72 192.742 6.72V12.72ZM196.023 13.4814C196.949 13.9802 197.616 14.627 198.094 15.4368L203.261 12.3872C202.203 10.5943 200.715 9.19315 198.868 8.19859L196.023 13.4814ZM198.112 15.4678C198.58 16.2392 198.862 17.2007 198.862 18.456H204.862C204.862 16.2553 204.353 14.1875 203.243 12.3562L198.112 15.4678ZM198.862 18.456C198.862 19.6526 198.588 20.616 198.101 21.4306L203.254 24.5054C204.346 22.6747 204.862 20.6301 204.862 18.456H198.862ZM198.083 21.4616C197.598 22.2978 196.922 22.9643 195.992 23.4796L198.899 28.7284C200.742 27.7077 202.221 26.2835 203.272 24.4744L198.083 21.4616ZM196.006 23.4719C195.14 23.9456 194.079 24.224 192.742 24.224V30.224C194.945 30.224 197.02 29.7557 198.885 28.7361L196.006 23.4719ZM192.742 26.8C194.172 26.8 195.558 26.4847 196.822 25.7825L193.909 20.5375C193.637 20.6887 193.274 20.8 192.742 20.8V26.8ZM196.822 25.7825C198.123 25.06 199.126 24.0048 199.812 22.7012L194.503 19.9068C194.336 20.2245 194.144 20.4066 193.909 20.5375L196.822 25.7825ZM199.783 22.7551C200.516 21.4283 200.83 19.9626 200.83 18.456H194.83C194.83 19.1254 194.695 19.5584 194.532 19.8529L199.783 22.7551ZM200.83 18.456C200.83 16.9422 200.522 15.4582 199.767 14.1272L194.548 17.0888C194.689 17.3365 194.83 17.7511 194.83 18.456H200.83ZM199.812 14.2108C199.126 12.9072 198.123 11.852 196.822 11.1295L193.909 16.3745C194.144 16.5054 194.336 16.6875 194.503 17.0052L199.812 14.2108ZM196.822 11.1295C195.568 10.4327 194.195 10.112 192.774 10.112V16.112C193.272 16.112 193.627 16.2179 193.909 16.3745L196.822 11.1295ZM192.774 10.112C191.343 10.112 189.957 10.4273 188.693 11.1295L191.606 16.3745C191.878 16.2233 192.241 16.112 192.774 16.112V10.112ZM188.661 11.1473C187.4 11.868 186.425 12.9032 185.732 14.1569L190.983 17.0591C191.186 16.6915 191.406 16.4894 191.638 16.3567L188.661 11.1473ZM185.748 14.1272C184.993 15.4582 184.686 16.9422 184.686 18.456H190.686C190.686 17.7511 190.826 17.3365 190.967 17.0888L185.748 14.1272ZM184.686 18.456C184.686 19.9626 184.999 21.4283 185.732 22.7551L190.983 19.8529C190.82 19.5584 190.686 19.1254 190.686 18.456H184.686ZM185.732 22.7551C186.425 24.0088 187.4 25.044 188.661 25.7647L191.638 20.5553C191.406 20.4226 191.186 20.2205 190.983 19.8529L185.732 22.7551ZM188.693 25.7825C189.947 26.4793 191.32 26.8 192.742 26.8V20.8C192.243 20.8 191.888 20.6941 191.606 20.5375L188.693 25.7825ZM219.458 27H216.458V30H219.458V27ZM219.458 8.12H222.458V5.12H219.458V8.12ZM212.034 8.12H209.034V11.12H212.034V8.12ZM212.034 4.6V1.6H209.034V4.6H212.034ZM231.042 4.6H234.042V1.6H231.042V4.6ZM231.042 8.12V11.12H234.042V8.12H231.042ZM223.618 8.12V5.12H220.618V8.12H223.618ZM223.618 27V30H226.618V27H223.618ZM222.458 27V8.12H216.458V27H222.458ZM219.458 5.12H212.034V11.12H219.458V5.12ZM215.034 8.12V4.6H209.034V8.12H215.034ZM212.034 7.6H231.042V1.6H212.034V7.6ZM228.042 4.6V8.12H234.042V4.6H228.042ZM231.042 5.12H223.618V11.12H231.042V5.12ZM220.618 8.12V27H226.618V8.12H220.618ZM223.618 24H219.458V30H223.618V24ZM236.766 26.424L235.424 29.1073L235.445 29.1177L235.466 29.1278L236.766 26.424ZM234.174 23.928L231.542 25.368L231.548 25.3786L231.554 25.3892L234.174 23.928ZM233.246 9.912V6.912H230.246V9.912H233.246ZM237.246 9.912H240.246V6.912H237.246V9.912ZM238.27 22.584L236.028 24.5771L236.057 24.61L236.087 24.642L238.27 22.584ZM243.678 23.128L242.241 20.4943L242.224 20.5037L242.207 20.5133L243.678 23.128ZM245.31 21.4L242.657 19.9997L242.641 20.0289L242.627 20.0584L245.31 21.4ZM245.918 9.912V6.912H242.918V9.912H245.918ZM249.918 9.912H252.918V6.912H249.918V9.912ZM249.918 27V30H252.918V27H249.918ZM246.11 27H243.11V30H246.11V27ZM246.11 22.392L248.817 21.0998L243.11 22.392H246.11ZM246.782 23.8L249.444 25.1824L250.133 23.8563L249.489 22.5078L246.782 23.8ZM244.254 26.36L245.636 29.0225L245.656 29.0121L245.676 29.0014L244.254 26.36ZM240.606 24.224C239.526 24.224 238.703 24.0267 238.066 23.7202L235.466 29.1278C237.047 29.8879 238.785 30.224 240.606 30.224V24.224ZM238.108 23.7407C237.551 23.4625 237.127 23.0631 236.794 22.4668L231.554 25.3892C232.459 27.0116 233.762 28.2761 235.424 29.1073L238.108 23.7407ZM236.806 22.488C236.494 21.9189 236.246 21.0328 236.246 19.672H230.246C230.246 21.7246 230.616 23.6758 231.542 25.368L236.806 22.488ZM236.246 19.672V9.912H230.246V19.672H236.246ZM233.246 12.912H237.246V6.912H233.246V12.912ZM234.246 9.912V19.128H240.246V9.912H234.246ZM234.246 19.128C234.246 21.0451 234.664 23.0433 236.028 24.5771L240.512 20.5909C240.51 20.5887 240.246 20.2829 240.246 19.128H234.246ZM236.087 24.642C237.492 26.132 239.358 26.704 241.246 26.704V20.704C240.574 20.704 240.456 20.5294 240.453 20.526L236.087 24.642ZM241.246 26.704C242.598 26.704 243.936 26.4251 245.149 25.7427L242.207 20.5133C242.055 20.5989 241.772 20.704 241.246 20.704V26.704ZM245.115 25.7617C246.395 25.0632 247.356 24.0166 247.993 22.7416L242.627 20.0584C242.496 20.3194 242.369 20.4248 242.241 20.4943L245.115 25.7617ZM247.963 22.8003C248.655 21.4901 248.918 20.0281 248.918 18.552H242.918C242.918 19.3373 242.776 19.7739 242.657 19.9997L247.963 22.8003ZM248.918 18.552V9.912H242.918V18.552H248.918ZM245.918 12.912H249.918V6.912H245.918V12.912ZM246.918 9.912V27H252.918V9.912H246.918ZM249.918 24H246.11V30H249.918V24ZM249.11 27V22.392H243.11V27H249.11ZM243.403 23.6842L244.075 25.0922L249.489 22.5078L248.817 21.0998L243.403 23.6842ZM244.12 22.4176C243.823 22.9877 243.415 23.4044 242.832 23.7186L245.676 29.0014C247.312 28.1209 248.589 26.831 249.444 25.1824L244.12 22.4176ZM242.872 23.6975C242.214 24.0389 241.476 24.224 240.606 24.224V30.224C242.381 30.224 244.075 29.8331 245.636 29.0225L242.872 23.6975ZM268.499 10.52L267.158 13.2033L267.168 13.2086L267.179 13.2138L268.499 10.52ZM271.059 12.984L268.439 14.4452L268.445 14.4561L268.451 14.4669L271.059 12.984ZM271.987 27V30H274.987V27H271.987ZM267.987 27H264.987V30H267.987V27ZM266.899 14.328L264.716 16.386L264.732 16.4023L264.747 16.4184L266.899 14.328ZM261.427 13.784L262.831 16.4354L262.831 16.4354L261.427 13.784ZM259.731 15.512L257.078 14.1117L257.071 14.1258L257.063 14.14L259.731 15.512ZM259.155 27V30H262.155V27H259.155ZM255.155 27H252.155V30H255.155V27ZM255.155 9.912V6.912H252.155V9.912H255.155ZM258.963 9.912H261.963V6.912H258.963V9.912ZM258.963 14.52L256.256 15.8122L261.963 14.52H258.963ZM258.291 13.112L255.662 11.6682L254.921 13.0163L255.584 14.4042L258.291 13.112ZM260.883 10.616L262.245 13.2891L262.255 13.2842L262.264 13.2793L260.883 10.616ZM264.851 12.72C265.819 12.72 266.564 12.9065 267.158 13.2033L269.841 7.83672C268.301 7.06679 266.615 6.72 264.851 6.72V12.72ZM267.179 13.2138C267.691 13.4647 268.103 13.8422 268.439 14.4452L273.679 11.5228C272.778 9.90716 271.484 8.64194 269.82 7.82624L267.179 13.2138ZM268.451 14.4669C268.734 14.9631 268.987 15.8112 268.987 17.208H274.987C274.987 15.1488 274.622 13.1809 273.667 11.5011L268.451 14.4669ZM268.987 17.208V27H274.987V17.208H268.987ZM271.987 24H267.987V30H271.987V24ZM270.987 27V17.72H264.987V27H270.987ZM270.987 17.72C270.987 15.7784 270.525 13.7549 269.051 12.2376L264.747 16.4184C264.75 16.4213 264.762 16.4334 264.78 16.4643C264.798 16.4963 264.828 16.5553 264.859 16.6523C264.923 16.8528 264.987 17.1923 264.987 17.72H270.987ZM269.082 12.27C267.677 10.78 265.811 10.208 263.923 10.208V16.208C264.595 16.208 264.713 16.3826 264.716 16.386L269.082 12.27ZM263.923 10.208C262.566 10.208 261.24 10.4887 260.024 11.1326L262.831 16.4354C263.065 16.3113 263.403 16.208 263.923 16.208V10.208ZM260.024 11.1326C258.734 11.8155 257.748 12.8433 257.078 14.1117L262.384 16.9123C262.526 16.6447 262.67 16.5205 262.831 16.4354L260.024 11.1326ZM257.063 14.14C256.395 15.439 256.155 16.8991 256.155 18.36H262.155C262.155 17.5169 262.299 17.0783 262.399 16.884L257.063 14.14ZM256.155 18.36V27H262.155V18.36H256.155ZM259.155 24H255.155V30H259.155V24ZM258.155 27V9.912H252.155V27H258.155ZM255.155 12.912H258.963V6.912H255.155V12.912ZM255.963 9.912V14.52H261.963V9.912H255.963ZM261.671 13.2278L260.999 11.8198L255.584 14.4042L256.256 15.8122L261.671 13.2278ZM260.921 14.5558C261.222 14.0079 261.638 13.5983 262.245 13.2891L259.521 7.94288C257.867 8.78565 256.555 10.0401 255.662 11.6682L260.921 14.5558ZM262.264 13.2793C262.929 12.9344 263.766 12.72 264.851 12.72V6.72C262.95 6.72 261.141 7.10289 259.502 7.95274L262.264 13.2793ZM280.133 26.104L278.696 28.7377L278.72 28.7506L278.744 28.763L280.133 26.104ZM276.837 22.968L274.242 24.4744L274.251 24.4899L274.261 24.5054L276.837 22.968ZM276.805 13.944L274.21 12.4376L274.206 12.4443L274.203 12.451L276.805 13.944ZM279.941 10.84L278.484 8.21753L278.475 8.2225L278.466 8.22753L279.941 10.84ZM288.965 10.808L290.425 8.18756L290.425 8.18756L288.965 10.808ZM293.125 19.128L290.14 18.8295L290.125 18.9784V19.128H293.125ZM293.093 19.736V22.736H295.778L296.074 20.0673L293.093 19.736ZM278.853 19.736H275.853V22.736H278.853V19.736ZM278.853 17.08V14.08H275.853V17.08H278.853ZM290.981 17.08L292.387 19.73L290.981 14.08V17.08ZM289.413 17.912L286.413 17.8468L286.302 22.9586L290.819 20.562L289.413 17.912ZM288.805 15.32L286.2 16.8084L286.2 16.8084L288.805 15.32ZM287.045 13.56L285.524 16.1458L285.54 16.1554L285.556 16.1647L287.045 13.56ZM281.925 13.56L280.436 10.9553L280.42 10.9646L280.404 10.9742L281.925 13.56ZM280.197 15.352L277.574 13.8951L277.567 13.9079L277.56 13.9207L280.197 15.352ZM282.277 23.192L280.935 25.8753L280.935 25.8753L282.277 23.192ZM287.813 23.384L288.9 26.18L288.9 26.18L287.813 23.384ZM289.861 21.976L292.124 20.0067L289.939 17.4955L287.668 19.929L289.861 21.976ZM292.005 24.44L294.283 26.3924L295.969 24.4253L294.268 22.4707L292.005 24.44ZM289.093 26.52L290.225 29.2983L290.237 29.2931L290.25 29.2877L289.093 26.52ZM285.125 24.224C283.624 24.224 282.452 23.9311 281.522 23.445L278.744 28.763C280.672 29.7703 282.828 30.224 285.125 30.224V24.224ZM281.569 23.4703C280.612 22.9482 279.916 22.2731 279.413 21.4306L274.261 24.5054C275.337 26.3083 276.837 27.7238 278.696 28.7377L281.569 23.4703ZM279.431 21.4616C278.955 20.6421 278.685 19.6676 278.685 18.456H272.685C272.685 20.6151 273.182 22.6485 274.242 24.4744L279.431 21.4616ZM278.685 18.456C278.685 17.2 278.955 16.2244 279.407 15.437L274.203 12.451C273.161 14.2663 272.685 16.2987 272.685 18.456H278.685ZM279.399 15.4504C279.901 14.5861 280.561 13.9347 281.416 13.4525L278.466 8.22753C276.675 9.2386 275.245 10.6566 274.21 12.4376L279.399 15.4504ZM281.398 13.4625C282.248 12.9898 283.263 12.72 284.517 12.72V6.72C282.358 6.72 280.321 7.19686 278.484 8.21753L281.398 13.4625ZM284.517 12.72C285.73 12.72 286.7 12.9801 287.504 13.4284L290.425 8.18756C288.627 7.18524 286.631 6.72 284.517 6.72V12.72ZM287.504 13.4284C288.314 13.8796 288.943 14.5028 289.424 15.3548L294.649 12.4052C293.637 10.6119 292.218 9.18703 290.425 8.18756L287.504 13.4284ZM289.424 15.3548C289.875 16.1526 290.157 17.1834 290.157 18.552H296.157C296.157 16.3366 295.692 14.2527 294.649 12.4052L289.424 15.3548ZM290.157 18.552C290.157 18.6016 290.153 18.6915 290.14 18.8295L296.11 19.4265C296.139 19.1378 296.157 18.8438 296.157 18.552H290.157ZM290.125 19.128C290.125 19.2419 290.119 19.3334 290.111 19.4047L296.074 20.0673C296.109 19.7546 296.125 19.4407 296.125 19.128H290.125ZM293.093 16.736H278.853V22.736H293.093V16.736ZM281.853 19.736V17.08H275.853V19.736H281.853ZM278.853 20.08H290.981V14.08H278.853V20.08ZM289.575 14.43L288.007 15.262L290.819 20.562L292.387 19.73L289.575 14.43ZM292.412 17.9772C292.443 16.5303 292.143 15.1145 291.409 13.8316L286.2 16.8084C286.32 17.0188 286.425 17.3311 286.413 17.8468L292.412 17.9772ZM291.409 13.8316C290.717 12.6198 289.745 11.6477 288.533 10.9553L285.556 16.1647C285.838 16.3256 286.039 16.5268 286.2 16.8084L291.409 13.8316ZM288.566 10.9742C287.318 10.2399 285.935 9.92 284.517 9.92V15.92C285.019 15.92 285.321 16.0267 285.524 16.1458L288.566 10.9742ZM284.517 9.92C283.088 9.92 281.697 10.2348 280.436 10.9553L283.413 16.1647C283.646 16.0318 283.983 15.92 284.517 15.92V9.92ZM280.404 10.9742C279.196 11.6844 278.249 12.6808 277.574 13.8951L282.819 16.8089C282.998 16.4872 283.202 16.2889 283.446 16.1458L280.404 10.9742ZM277.56 13.9207C276.872 15.1885 276.589 16.5861 276.589 18.008H282.589C282.589 17.3819 282.711 17.0089 282.833 16.7833L277.56 13.9207ZM276.589 18.008V18.648H282.589V18.008H276.589ZM276.589 18.648C276.589 20.148 276.938 21.5962 277.714 22.9012L282.871 19.8348C282.709 19.5612 282.589 19.196 282.589 18.648H276.589ZM277.714 22.9012C278.489 24.2043 279.589 25.2022 280.935 25.8753L283.618 20.5087C283.258 20.3285 283.035 20.1103 282.871 19.8348L277.714 22.9012ZM280.935 25.8753C282.268 26.5417 283.721 26.832 285.221 26.832V20.832C284.501 20.832 283.992 20.6957 283.618 20.5087L280.935 25.8753ZM285.221 26.832C286.492 26.832 287.733 26.6338 288.9 26.18L286.725 20.588C286.356 20.7316 285.869 20.832 285.221 20.832V26.832ZM288.9 26.18C290.114 25.7078 291.169 24.9715 292.054 24.023L287.668 19.929C287.358 20.2605 287.047 20.4629 286.725 20.588L288.9 26.18ZM287.598 23.9453L289.742 26.4093L294.268 22.4707L292.124 20.0067L287.598 23.9453ZM289.727 22.4876C289.287 23.0009 288.711 23.4279 287.935 23.7523L290.25 29.2877C291.821 28.6308 293.187 27.6711 294.283 26.3924L289.727 22.4876ZM287.961 23.7417C287.233 24.0384 286.306 24.224 285.125 24.224V30.224C286.93 30.224 288.649 29.9402 290.225 29.2983L287.961 23.7417ZM297.543 27H294.543V30H297.543V27ZM299.111 4.664L296.969 2.56379L296.968 2.56421L299.111 4.664ZM305.639 3.256L304.935 6.17225L304.946 6.17493L304.957 6.17752L305.639 3.256ZM307.239 3.96L310.06 4.98041L310.815 2.8923L309.039 1.56L307.239 3.96ZM306.151 6.968L304.298 9.32696L307.561 11.8908L308.972 7.98841L306.151 6.968ZM305.127 6.456L304.178 9.30205L304.251 9.32615L304.324 9.34655L305.127 6.456ZM302.055 6.968L304.227 9.03696L304.251 9.01177L304.275 8.98602L302.055 6.968ZM301.415 10.936H298.415V11.043L298.423 11.1497L301.415 10.936ZM301.543 12.728H304.543V12.621L304.535 12.5143L301.543 12.728ZM301.543 27V30H304.543V27H301.543ZM294.727 13.24H291.727V16.24H294.727V13.24ZM294.727 10.04V7.04H291.727V10.04H294.727ZM306.119 10.04H309.119V7.04H306.119V10.04ZM306.119 13.24V16.24H309.119V13.24H306.119ZM300.543 27V8.952H294.543V27H300.543ZM300.543 8.952C300.543 7.7777 300.865 7.16048 301.254 6.76378L296.968 2.56421C295.266 4.30085 294.543 6.5423 294.543 8.952H300.543ZM301.253 6.76421C301.605 6.40505 302.255 6.032 303.655 6.032V0.0319996C301.13 0.0319996 298.75 0.746946 296.969 2.56379L301.253 6.76421ZM303.655 6.032C304.147 6.032 304.57 6.08408 304.935 6.17225L306.343 0.339751C305.471 0.129254 304.571 0.0319996 303.655 0.0319996V6.032ZM304.957 6.17752C305.284 6.25374 305.413 6.34027 305.439 6.36L309.039 1.56C308.212 0.939729 307.274 0.556925 306.321 0.334476L304.957 6.17752ZM304.418 2.93959L303.33 5.94759L308.972 7.98841L310.06 4.98041L304.418 2.93959ZM308.004 4.60904C307.379 4.11755 306.677 3.77287 305.93 3.56545L304.324 9.34655C304.338 9.35055 304.339 9.35192 304.329 9.34728C304.325 9.34514 304.32 9.3422 304.314 9.33846C304.308 9.33471 304.302 9.33078 304.298 9.32696L308.004 4.60904ZM306.076 3.60995C305.385 3.37984 304.67 3.264 303.943 3.264V9.264C304.026 9.264 304.101 9.27616 304.178 9.30205L306.076 3.60995ZM303.943 3.264C302.544 3.264 300.994 3.6755 299.835 4.94998L304.275 8.98602C304.216 9.05027 304.149 9.10816 304.077 9.15615C304.006 9.20374 303.942 9.23348 303.895 9.25094C303.805 9.28449 303.803 9.264 303.943 9.264V3.264ZM299.883 4.89903C298.717 6.12329 298.415 7.69483 298.415 9.016H304.415C304.415 8.90171 304.422 8.82073 304.429 8.76849C304.436 8.71631 304.442 8.69967 304.438 8.71082C304.435 8.72275 304.42 8.76481 304.386 8.82579C304.351 8.88805 304.299 8.96195 304.227 9.03696L299.883 4.89903ZM298.415 9.016V10.936H304.415V9.016H298.415ZM298.423 11.1497L298.551 12.9417L304.535 12.5143L304.407 10.7223L298.423 11.1497ZM298.543 12.728V27H304.543V12.728H298.543ZM301.543 24H297.543V30H301.543V24ZM297.727 13.24V10.04H291.727V13.24H297.727ZM294.727 13.04H306.119V7.04H294.727V13.04ZM303.119 10.04V13.24H309.119V10.04H303.119ZM306.119 10.24H294.727V16.24H306.119V10.24ZM308.036 33.016L307.087 35.8621L307.087 35.8621L308.036 33.016ZM305.956 31.864L303.32 30.4315L302.18 32.5291L303.968 34.111L305.956 31.864ZM307.556 28.92L309.556 26.6843L306.731 24.156L304.92 27.4875L307.556 28.92ZM308.932 29.784L310.086 27.0148L310.086 27.0148L308.932 29.784ZM312.26 29.56L314.148 31.8917L314.148 31.8917L312.26 29.56ZM313.508 27.736L316.244 28.9671L316.247 28.9589L316.251 28.9508L313.508 27.736ZM314.5 25.496L312.004 23.8319L311.861 24.046L311.757 24.2812L314.5 25.496ZM314.82 25.016L317.316 26.6801L317.469 26.4503L317.578 26.1963L314.82 25.016ZM321.284 9.912V6.912H319.305L318.526 8.73165L321.284 9.912ZM325.124 9.912L327.877 11.1047L329.693 6.912H325.124V9.912ZM317.124 28.376L314.371 27.1833L314.363 27.2027L314.355 27.2222L317.124 28.376ZM315.332 31.416L313.086 29.4269L313.07 29.4451L313.054 29.4636L315.332 31.416ZM313.156 32.984L312.119 30.169L312.107 30.1735L312.094 30.1781L313.156 32.984ZM314.052 27.608L311.302 28.8065L313.137 33.0186L316.255 29.6438L314.052 27.608ZM306.34 9.912V6.912H301.76L303.59 11.1105L306.34 9.912ZM310.5 9.912L313.261 8.7382L312.484 6.912H310.5V9.912ZM316.772 24.664L318.975 26.6998L320.292 25.2752L319.533 23.4902L316.772 24.664ZM310.532 30.432C310.04 30.432 309.527 30.3509 308.985 30.17L307.087 35.8621C308.209 36.2358 309.36 36.432 310.532 36.432V30.432ZM308.985 30.17C308.466 29.9972 308.145 29.7955 307.944 29.617L303.968 34.111C304.876 34.9138 305.942 35.4802 307.087 35.8621L308.985 30.17ZM308.592 33.2965L310.192 30.3525L304.92 27.4875L303.32 30.4315L308.592 33.2965ZM305.556 31.1557C306.216 31.7468 306.962 32.2133 307.778 32.5532L310.086 27.0148C309.878 26.928 309.706 26.8185 309.556 26.6843L305.556 31.1557ZM307.778 32.5532C308.641 32.9127 309.555 33.104 310.5 33.104V27.104C310.379 27.104 310.247 27.082 310.086 27.0148L307.778 32.5532ZM310.5 33.104C311.731 33.104 313.04 32.7886 314.148 31.8917L310.372 27.2283C310.415 27.1935 310.46 27.1649 310.502 27.1427C310.544 27.1206 310.577 27.1082 310.598 27.1018C310.638 27.0894 310.615 27.104 310.5 27.104V33.104ZM314.148 31.8917C315.12 31.1048 315.774 30.0117 316.244 28.9671L310.772 26.5049C310.635 26.8109 310.517 27.0132 310.432 27.1379C310.345 27.2651 310.318 27.2725 310.372 27.2283L314.148 31.8917ZM316.251 28.9508L317.243 26.7108L311.757 24.2812L310.765 26.5212L316.251 28.9508ZM316.996 27.1601L317.316 26.6801L312.324 23.3519L312.004 23.8319L316.996 27.1601ZM317.578 26.1963L324.042 11.0923L318.526 8.73165L312.062 23.8357L317.578 26.1963ZM321.284 12.912H325.124V6.912H321.284V12.912ZM322.371 8.71931L314.371 27.1833L319.877 29.5687L327.877 11.1047L322.371 8.71931ZM314.355 27.2222C313.903 28.3068 313.461 29.0037 313.086 29.4269L317.578 33.4051C318.526 32.335 319.279 31.0052 319.893 29.5298L314.355 27.2222ZM313.054 29.4636C312.701 29.8761 312.386 30.0706 312.119 30.169L314.193 35.799C315.547 35.3001 316.683 34.4492 317.61 33.3684L313.054 29.4636ZM312.094 30.1781C311.688 30.3321 311.179 30.432 310.532 30.432V36.432C311.805 36.432 313.046 36.2333 314.218 35.7899L312.094 30.1781ZM316.802 26.4095L309.09 8.71346L303.59 11.1105L311.302 28.8065L316.802 26.4095ZM306.34 12.912H310.5V6.912H306.34V12.912ZM307.739 11.0858L314.011 25.8378L319.533 23.4902L313.261 8.7382L307.739 11.0858ZM314.569 22.6282L311.849 25.5722L316.255 29.6438L318.975 26.6998L314.569 22.6282Z" fill="url(#paint0_radial_360_47)" mask="url(#path-1-outside-1_360_47)"/>
</g>
<defs>
<radialGradient id="paint0_radial_360_47" cx="0" cy="0" r="1" gradientUnits="userSpaceOnUse" gradientTransform="translate(164.5 15.4999) rotate(0.0845128) scale(339 2790.23)">
<stop stop-color="white"/>
<stop offset="1" stop-color="white" stop-opacity="0"/>
</radialGradient>
<clipPath id="clip0_360_47">
<rect width="330" height="37" fill="white"/>
</clipPath>
</defs>
</svg>
