<svg width="515" height="125" viewBox="0 0 515 125" fill="none" xmlns="http://www.w3.org/2000/svg">
<path d="M3.8125 5.375H75.5V18.1875H46.0625V95H33.25V18.1875H3.8125V5.375ZM94.675 28.4375H106.925V82.6875H141.238V28.4375H153.55V95H141.238V83.75C141.113 85.2917 140.696 86.75 139.988 88.125C139.279 89.5 138.363 90.7083 137.238 91.75C136.154 92.75 134.904 93.5417 133.488 94.125C132.071 94.7083 130.571 95 128.988 95H106.925C105.258 95 103.675 94.6875 102.175 94.0625C100.675 93.3958 99.3625 92.5208 98.2375 91.4375C97.1542 90.3125 96.2792 89 95.6125 87.5C94.9875 86 94.675 84.3958 94.675 82.6875V28.4375ZM345.513 68H301.45V82.6875H345.513V95H301.45C299.783 95 298.2 94.6875 296.7 94.0625C295.2 93.3958 293.888 92.5208 292.763 91.4375C291.679 90.3125 290.804 89 290.138 87.5C289.513 86 289.2 84.3958 289.2 82.6875V40.75C289.2 39.0417 289.513 37.4375 290.138 35.9375C290.804 34.4375 291.679 33.1458 292.763 32.0625C293.888 30.9375 295.2 30.0625 296.7 29.4375C298.2 28.7708 299.783 28.4375 301.45 28.4375H333.2C334.908 28.4375 336.513 28.7708 338.013 29.4375C339.513 30.0625 340.804 30.9375 341.888 32.0625C343.013 33.1458 343.888 34.4375 344.513 35.9375C345.179 37.4375 345.513 39.0417 345.513 40.75V68ZM301.45 40.75V55.6875H333.2V40.75H301.45ZM403.562 15.125V28.4375H425.438V40.75H403.562V95H391.25V40.75H375V28.4375H391.25V15.125C391.25 13.4167 391.562 11.8333 392.188 10.375C392.854 8.875 393.75 7.5625 394.875 6.4375C396 5.3125 397.312 4.4375 398.812 3.8125C400.312 3.14583 401.896 2.8125 403.562 2.8125H425.438V15.125H403.562ZM459.425 121.875L473.362 89L447.237 28.4375H460.175L479.612 74.25L499.05 28.4375H511.987L471.675 121.875H459.425Z" fill="#F2F2F2"/>
<g filter="url(#filter0_d_32_48)">
<path d="M248.719 70.4278C256.215 70.4182 261.443 73.6004 262.579 80.1846C262.782 57.9835 264.66 30.2323 258.416 26.5325C247.879 20.2899 217.831 26.4977 211.246 35.2763C207.082 40.8265 211.246 72.2779 208.795 91.6569C206.714 97.2071 202.167 99.9516 195.612 99.9993C187.287 100.06 181.652 96.1031 181.04 88.8985C180.39 81.24 187.677 76.4082 196.304 76.8563C205.558 77.3369 209.164 83.3783 208.795 91.6569C211.246 72.2779 207.082 40.8265 211.246 35.2763C217.831 26.4977 247.879 20.2899 258.416 26.5325C264.66 30.2323 262.782 57.9835 262.579 80.1846C262.518 86.8455 258.199 90.5847 250.801 91.6569C243.231 92.7541 235.796 90.0353 234.147 83.3785C232.29 75.8777 240.077 70.4389 248.719 70.4278Z" fill="#A42854"/>
<path d="M262.579 80.1846C261.443 73.6004 256.215 70.4182 248.719 70.4278C240.077 70.4389 232.29 75.8777 234.147 83.3785C235.796 90.0353 243.231 92.7541 250.801 91.6569C258.199 90.5847 262.518 86.8455 262.579 80.1846ZM262.579 80.1846C262.782 57.9835 264.66 30.2323 258.416 26.5325C247.879 20.2899 217.831 26.4977 211.246 35.2763C207.082 40.8265 211.246 72.2779 208.795 91.6569M208.795 91.6569C209.164 83.3783 205.558 77.3369 196.304 76.8563C187.677 76.4082 180.39 81.24 181.04 88.8985C181.652 96.1031 187.287 100.06 195.612 99.9993C202.167 99.9516 206.714 97.2071 208.795 91.6569Z" stroke="#F2F2F2" stroke-width="6" stroke-linejoin="round"/>
</g>
<defs>
<filter id="filter0_d_32_48" x="164.3" y="7.3" width="115.4" height="109.4" filterUnits="userSpaceOnUse" color-interpolation-filters="sRGB">
<feFlood flood-opacity="0" result="BackgroundImageFix"/>
<feColorMatrix in="SourceAlpha" type="matrix" values="0 0 0 0 0 0 0 0 0 0 0 0 0 0 0 0 0 0 127 0" result="hardAlpha"/>
<feOffset/>
<feGaussianBlur stdDeviation="6.85"/>
<feComposite in2="hardAlpha" operator="out"/>
<feColorMatrix type="matrix" values="0 0 0 0 1 0 0 0 0 0.191667 0 0 0 0 0.482667 0 0 0 1 0"/>
<feBlend mode="normal" in2="BackgroundImageFix" result="effect1_dropShadow_32_48"/>
<feBlend mode="normal" in="SourceGraphic" in2="effect1_dropShadow_32_48" result="shape"/>
</filter>
</defs>
</svg>
