<svg width="100" height="100" viewBox="0 0 100 100" fill="none" xmlns="http://www.w3.org/2000/svg">
<rect width="100" height="100" fill="#888888"/>
<path d="M15.7498 45.14C14.7232 45.14 13.7965 44.9133 12.9698 44.46C12.1565 43.9933 11.5165 43.3533 11.0498 42.54C10.5832 41.7267 10.3498 40.7667 10.3498 39.66C10.3498 38.5533 10.5832 37.5933 11.0498 36.78C11.5165 35.9667 12.1565 35.3333 12.9698 34.88C13.7965 34.4267 14.7232 34.2 15.7498 34.2C16.6432 34.2 17.4432 34.4 18.1498 34.8C18.8565 35.1867 19.4165 35.78 19.8298 36.58C20.2432 37.38 20.4498 38.4067 20.4498 39.66C20.4498 40.9 20.2498 41.9267 19.8498 42.74C19.4498 43.54 18.8965 44.14 18.1898 44.54C17.4832 44.94 16.6698 45.14 15.7498 45.14ZM16.0498 43C16.6498 43 17.1832 42.8667 17.6498 42.6C18.1298 42.3333 18.5098 41.9467 18.7898 41.44C19.0832 40.9333 19.2298 40.34 19.2298 39.66C19.2298 38.9667 19.0832 38.3733 18.7898 37.88C18.5098 37.3733 18.1298 36.9867 17.6498 36.72C17.1832 36.4533 16.6498 36.32 16.0498 36.32C15.4498 36.32 14.9098 36.4533 14.4298 36.72C13.9632 36.9867 13.5832 37.3733 13.2898 37.88C13.0098 38.3733 12.8698 38.9667 12.8698 39.66C12.8698 40.34 13.0098 40.9333 13.2898 41.44C13.5832 41.9467 13.9632 42.3333 14.4298 42.6C14.9098 42.8667 15.4498 43 16.0498 43ZM19.2898 45V42.48L19.3898 39.64L19.1898 36.8V30.16H21.6698V45H19.2898ZM29.4803 45.14C28.5736 45.14 27.7736 44.9733 27.0803 44.64C26.387 44.2933 25.847 43.7733 25.4603 43.08C25.0736 42.3733 24.8803 41.4867 24.8803 40.42V34.32H27.3803V40.08C27.3803 41.04 27.5936 41.76 28.0203 42.24C28.4603 42.7067 29.0803 42.94 29.8803 42.94C30.467 42.94 30.9736 42.82 31.4003 42.58C31.8403 42.34 32.1803 41.98 32.4203 41.5C32.6736 41.02 32.8003 40.4267 32.8003 39.72V34.32H35.3003V45H32.9203V42.12L33.3403 43C32.9803 43.6933 32.4536 44.2267 31.7603 44.6C31.067 44.96 30.307 45.14 29.4803 45.14ZM52.0536 34.2C52.9069 34.2 53.6603 34.3667 54.3136 34.7C54.9803 35.0333 55.5003 35.5467 55.8736 36.24C56.2469 36.92 56.4336 37.8 56.4336 38.88V45H53.9336V39.2C53.9336 38.2533 53.7269 37.5467 53.3136 37.08C52.9003 36.6133 52.3069 36.38 51.5336 36.38C50.9869 36.38 50.5003 36.5 50.0736 36.74C49.6603 36.98 49.3336 37.3333 49.0936 37.8C48.8669 38.2667 48.7536 38.86 48.7536 39.58V45H46.2536V39.2C46.2536 38.2533 46.0469 37.5467 45.6336 37.08C45.2203 36.6133 44.6269 36.38 43.8536 36.38C43.3069 36.38 42.8203 36.5 42.3936 36.74C41.9803 36.98 41.6536 37.3333 41.4136 37.8C41.1869 38.2667 41.0736 38.86 41.0736 39.58V45H38.5736V34.32H40.9536V37.16L40.5336 36.32C40.8936 35.6267 41.4136 35.1 42.0936 34.74C42.7869 34.38 43.5736 34.2 44.4536 34.2C45.4536 34.2 46.3203 34.4467 47.0536 34.94C47.8003 35.4333 48.2936 36.18 48.5336 37.18L47.5536 36.84C47.9003 36.04 48.4736 35.4 49.2736 34.92C50.0736 34.44 51.0003 34.2 52.0536 34.2ZM73.1083 34.2C73.9616 34.2 74.7149 34.3667 75.3683 34.7C76.0349 35.0333 76.5549 35.5467 76.9283 36.24C77.3016 36.92 77.4883 37.8 77.4883 38.88V45H74.9883V39.2C74.9883 38.2533 74.7816 37.5467 74.3683 37.08C73.9549 36.6133 73.3616 36.38 72.5883 36.38C72.0416 36.38 71.5549 36.5 71.1283 36.74C70.7149 36.98 70.3883 37.3333 70.1483 37.8C69.9216 38.2667 69.8083 38.86 69.8083 39.58V45H67.3083V39.2C67.3083 38.2533 67.1016 37.5467 66.6883 37.08C66.2749 36.6133 65.6816 36.38 64.9083 36.38C64.3616 36.38 63.8749 36.5 63.4483 36.74C63.0349 36.98 62.7083 37.3333 62.4683 37.8C62.2416 38.2667 62.1283 38.86 62.1283 39.58V45H59.6283V34.32H62.0083V37.16L61.5883 36.32C61.9483 35.6267 62.4683 35.1 63.1483 34.74C63.8416 34.38 64.6283 34.2 65.5083 34.2C66.5083 34.2 67.3749 34.4467 68.1083 34.94C68.8549 35.4333 69.3483 36.18 69.5883 37.18L68.6083 36.84C68.9549 36.04 69.5283 35.4 70.3283 34.92C71.1283 34.44 72.0549 34.2 73.1083 34.2ZM81.3677 49.02C80.8477 49.02 80.3277 48.9333 79.8077 48.76C79.2877 48.5867 78.8543 48.3467 78.5077 48.04L79.5077 46.2C79.761 46.4267 80.0477 46.6067 80.3677 46.74C80.6877 46.8733 81.0143 46.94 81.3477 46.94C81.801 46.94 82.1677 46.8267 82.4477 46.6C82.7277 46.3733 82.9877 45.9933 83.2277 45.46L83.8477 44.06L84.0477 43.76L88.0877 34.32H90.4877L85.4877 45.86C85.1543 46.66 84.781 47.2933 84.3677 47.76C83.9677 48.2267 83.5143 48.5533 83.0077 48.74C82.5143 48.9267 81.9677 49.02 81.3677 49.02ZM83.5677 45.38L78.7477 34.32H81.3477L85.2677 43.54L83.5677 45.38ZM18.974 69V58.32H21.474V69H18.974ZM20.234 56.56C19.7673 56.56 19.3807 56.4133 19.074 56.12C18.7807 55.8267 18.634 55.4733 18.634 55.06C18.634 54.6333 18.7807 54.28 19.074 54C19.3807 53.7067 19.7673 53.56 20.234 53.56C20.7007 53.56 21.0807 53.7 21.374 53.98C21.6807 54.2467 21.834 54.5867 21.834 55C21.834 55.44 21.6873 55.8133 21.394 56.12C21.1007 56.4133 20.714 56.56 20.234 56.56ZM38.2352 58.2C39.0886 58.2 39.8419 58.3667 40.4952 58.7C41.1619 59.0333 41.6819 59.5467 42.0552 60.24C42.4286 60.92 42.6152 61.8 42.6152 62.88V69H40.1152V63.2C40.1152 62.2533 39.9086 61.5467 39.4952 61.08C39.0819 60.6133 38.4886 60.38 37.7152 60.38C37.1686 60.38 36.6819 60.5 36.2552 60.74C35.8419 60.98 35.5152 61.3333 35.2752 61.8C35.0486 62.2667 34.9352 62.86 34.9352 63.58V69H32.4352V63.2C32.4352 62.2533 32.2286 61.5467 31.8152 61.08C31.4019 60.6133 30.8086 60.38 30.0352 60.38C29.4886 60.38 29.0019 60.5 28.5752 60.74C28.1619 60.98 27.8352 61.3333 27.5952 61.8C27.3686 62.2667 27.2552 62.86 27.2552 63.58V69H24.7552V58.32H27.1352V61.16L26.7152 60.32C27.0752 59.6267 27.5952 59.1 28.2752 58.74C28.9686 58.38 29.7552 58.2 30.6352 58.2C31.6352 58.2 32.5019 58.4467 33.2352 58.94C33.9819 59.4333 34.4752 60.18 34.7152 61.18L33.7352 60.84C34.0819 60.04 34.6552 59.4 35.4552 58.92C36.2552 58.44 37.1819 58.2 38.2352 58.2ZM52.3899 69V66.84L52.2499 66.38V62.6C52.2499 61.8667 52.0299 61.3 51.5899 60.9C51.1499 60.4867 50.4833 60.28 49.5899 60.28C48.9899 60.28 48.3966 60.3733 47.8099 60.56C47.2366 60.7467 46.7499 61.0067 46.3499 61.34L45.3699 59.52C45.9433 59.08 46.6233 58.7533 47.4099 58.54C48.2099 58.3133 49.0366 58.2 49.8899 58.2C51.4366 58.2 52.6299 58.5733 53.4699 59.32C54.3233 60.0533 54.7499 61.1933 54.7499 62.74V69H52.3899ZM49.0299 69.14C48.2299 69.14 47.5299 69.0067 46.9299 68.74C46.3299 68.46 45.8633 68.08 45.5299 67.6C45.2099 67.1067 45.0499 66.5533 45.0499 65.94C45.0499 65.34 45.1899 64.8 45.4699 64.32C45.7633 63.84 46.2366 63.46 46.8899 63.18C47.5433 62.9 48.4099 62.76 49.4899 62.76H52.5899V64.42H49.6699C48.8166 64.42 48.2433 64.56 47.9499 64.84C47.6566 65.1067 47.5099 65.44 47.5099 65.84C47.5099 66.2933 47.6899 66.6533 48.0499 66.92C48.4099 67.1867 48.9099 67.32 49.5499 67.32C50.1633 67.32 50.7099 67.18 51.1899 66.9C51.6833 66.62 52.0366 66.2067 52.2499 65.66L52.6699 67.16C52.4299 67.7867 51.9966 68.2733 51.3699 68.62C50.7566 68.9667 49.9766 69.14 49.0299 69.14ZM62.8179 73.02C61.8312 73.02 60.8646 72.8867 59.9179 72.62C58.9846 72.3667 58.2179 71.9933 57.6179 71.5L58.7379 69.62C59.2046 70.0067 59.7912 70.3133 60.4979 70.54C61.2179 70.78 61.9446 70.9 62.6779 70.9C63.8512 70.9 64.7112 70.6267 65.2579 70.08C65.8046 69.5467 66.0779 68.74 66.0779 67.66V65.76L66.2779 63.34L66.1979 60.92V58.32H68.5779V67.38C68.5779 69.3133 68.0846 70.7333 67.0979 71.64C66.1112 72.56 64.6846 73.02 62.8179 73.02ZM62.4979 68.52C61.4846 68.52 60.5646 68.3067 59.7379 67.88C58.9246 67.44 58.2779 66.8333 57.7979 66.06C57.3312 65.2867 57.0979 64.38 57.0979 63.34C57.0979 62.3133 57.3312 61.4133 57.7979 60.64C58.2779 59.8667 58.9246 59.2667 59.7379 58.84C60.5646 58.4133 61.4846 58.2 62.4979 58.2C63.4046 58.2 64.2179 58.38 64.9379 58.74C65.6579 59.1 66.2312 59.66 66.6579 60.42C67.0979 61.18 67.3179 62.1533 67.3179 63.34C67.3179 64.5267 67.0979 65.5067 66.6579 66.28C66.2312 67.04 65.6579 67.6067 64.9379 67.98C64.2179 68.34 63.4046 68.52 62.4979 68.52ZM62.8779 66.4C63.5046 66.4 64.0646 66.2733 64.5579 66.02C65.0512 65.7533 65.4312 65.3933 65.6979 64.94C65.9779 64.4733 66.1179 63.94 66.1179 63.34C66.1179 62.74 65.9779 62.2133 65.6979 61.76C65.4312 61.2933 65.0512 60.94 64.5579 60.7C64.0646 60.4467 63.5046 60.32 62.8779 60.32C62.2512 60.32 61.6846 60.4467 61.1779 60.7C60.6846 60.94 60.2979 61.2933 60.0179 61.76C59.7512 62.2133 59.6179 62.74 59.6179 63.34C59.6179 63.94 59.7512 64.4733 60.0179 64.94C60.2979 65.3933 60.6846 65.7533 61.1779 66.02C61.6846 66.2733 62.2512 66.4 62.8779 66.4ZM76.8846 69.14C75.6979 69.14 74.6579 68.9067 73.7646 68.44C72.8846 67.96 72.1979 67.3067 71.7046 66.48C71.2246 65.6533 70.9846 64.7133 70.9846 63.66C70.9846 62.5933 71.2179 61.6533 71.6846 60.84C72.1646 60.0133 72.8179 59.3667 73.6446 58.9C74.4846 58.4333 75.4379 58.2 76.5046 58.2C77.5446 58.2 78.4713 58.4267 79.2846 58.88C80.0979 59.3333 80.7379 59.9733 81.2046 60.8C81.6713 61.6267 81.9046 62.6 81.9046 63.72C81.9046 63.8267 81.8979 63.9467 81.8846 64.08C81.8846 64.2133 81.8779 64.34 81.8646 64.46H72.9646V62.8H80.5446L79.5646 63.32C79.5779 62.7067 79.4513 62.1667 79.1846 61.7C78.9179 61.2333 78.5513 60.8667 78.0846 60.6C77.6313 60.3333 77.1046 60.2 76.5046 60.2C75.8913 60.2 75.3513 60.3333 74.8846 60.6C74.4313 60.8667 74.0713 61.24 73.8046 61.72C73.5513 62.1867 73.4246 62.74 73.4246 63.38V63.78C73.4246 64.42 73.5713 64.9867 73.8646 65.48C74.1579 65.9733 74.5713 66.3533 75.1046 66.62C75.6379 66.8867 76.2513 67.02 76.9446 67.02C77.5446 67.02 78.0846 66.9267 78.5646 66.74C79.0446 66.5533 79.4713 66.26 79.8446 65.86L81.1846 67.4C80.7046 67.96 80.0979 68.3933 79.3646 68.7C78.6446 68.9933 77.8179 69.14 76.8846 69.14Z" fill="white"/>
</svg>
